<mxfile modified="2024-05-07T14:11:34.928Z" host="app.diagrams.net" agent="Mozilla/5.0 (Windows NT 10.0; Win64; x64) AppleWebKit/537.36 (KHTML, like Gecko) Chrome/124.0.0.0 Safari/537.36" etag="pwTDpf7YyFAxL_uOhiel" version="24.3.1" type="github">
  <diagram id="Ht1M8jgEwFfnCIfOTk4-" name="Page-1">
    <mxGraphModel dx="1221" dy="674" grid="1" gridSize="10" guides="1" tooltips="1" connect="1" arrows="1" fold="1" page="1" pageScale="1" pageWidth="1169" pageHeight="827" math="0" shadow="0">
      <root>
        <mxCell id="0" />
        <mxCell id="1" parent="0" />
        <mxCell id="UEzPUAAOIrF-is8g5C7q-128" style="edgeStyle=orthogonalEdgeStyle;rounded=0;orthogonalLoop=1;jettySize=auto;html=1;startArrow=open;startFill=0;endArrow=open;endFill=0;strokeWidth=2;strokeColor=#808080;entryX=0;entryY=0.5;entryDx=0;entryDy=0;" parent="1" source="UEzPUAAOIrF-is8g5C7q-109" target="9xw5Spc9I-vdvetbcxKs-8" edge="1">
          <mxGeometry relative="1" as="geometry">
            <Array as="points">
              <mxPoint x="311" y="461" />
              <mxPoint x="311" y="557" />
              <mxPoint x="360" y="557" />
            </Array>
            <mxPoint x="369.5" y="376.5" as="targetPoint" />
          </mxGeometry>
        </mxCell>
        <mxCell id="UEzPUAAOIrF-is8g5C7q-127" style="edgeStyle=orthogonalEdgeStyle;rounded=0;orthogonalLoop=1;jettySize=auto;html=1;startArrow=open;startFill=0;endArrow=open;endFill=0;strokeWidth=2;strokeColor=#808080;" parent="1" source="UEzPUAAOIrF-is8g5C7q-110" target="9xw5Spc9I-vdvetbcxKs-8" edge="1">
          <mxGeometry relative="1" as="geometry">
            <Array as="points">
              <mxPoint x="360" y="282" />
              <mxPoint x="360" y="520" />
            </Array>
            <mxPoint x="369.5" y="361.5" as="targetPoint" />
          </mxGeometry>
        </mxCell>
        <mxCell id="UEzPUAAOIrF-is8g5C7q-132" style="edgeStyle=orthogonalEdgeStyle;rounded=0;orthogonalLoop=1;jettySize=auto;html=1;startArrow=open;startFill=0;endArrow=open;endFill=0;strokeWidth=2;strokeColor=#808080;" parent="1" target="UEzPUAAOIrF-is8g5C7q-119" edge="1">
          <mxGeometry relative="1" as="geometry">
            <Array as="points">
              <mxPoint x="659" y="280" />
            </Array>
            <mxPoint x="658.499112850026" y="372" as="sourcePoint" />
          </mxGeometry>
        </mxCell>
        <mxCell id="UEzPUAAOIrF-is8g5C7q-133" style="edgeStyle=orthogonalEdgeStyle;rounded=0;orthogonalLoop=1;jettySize=auto;html=1;startArrow=open;startFill=0;endArrow=open;endFill=0;strokeWidth=2;strokeColor=#808080;" parent="1" source="9xw5Spc9I-vdvetbcxKs-8" target="9xw5Spc9I-vdvetbcxKs-5" edge="1">
          <mxGeometry relative="1" as="geometry">
            <Array as="points">
              <mxPoint x="761" y="382" />
              <mxPoint x="761" y="416" />
            </Array>
            <mxPoint x="658.499112850026" y="381.5" as="sourcePoint" />
            <mxPoint x="800.5000000000002" y="415.5" as="targetPoint" />
          </mxGeometry>
        </mxCell>
        <mxCell id="UEzPUAAOIrF-is8g5C7q-134" style="edgeStyle=orthogonalEdgeStyle;rounded=0;orthogonalLoop=1;jettySize=auto;html=1;startArrow=open;startFill=0;endArrow=open;endFill=0;strokeWidth=2;strokeColor=#808080;" parent="1" edge="1">
          <mxGeometry relative="1" as="geometry">
            <Array as="points">
              <mxPoint x="740.5" y="391.5" />
              <mxPoint x="740.5" y="530.5" />
            </Array>
            <mxPoint x="658.499112850026" y="391.5" as="sourcePoint" />
            <mxPoint x="800.5000000000002" y="530.5" as="targetPoint" />
          </mxGeometry>
        </mxCell>
        <mxCell id="UEzPUAAOIrF-is8g5C7q-135" style="edgeStyle=orthogonalEdgeStyle;rounded=0;orthogonalLoop=1;jettySize=auto;html=1;startArrow=open;startFill=0;endArrow=open;endFill=0;strokeWidth=2;strokeColor=#808080;" parent="1" edge="1">
          <mxGeometry relative="1" as="geometry">
            <Array as="points">
              <mxPoint x="720.5" y="401.5" />
              <mxPoint x="720.5" y="653.5" />
            </Array>
            <mxPoint x="658.499112850026" y="401.5" as="sourcePoint" />
            <mxPoint x="801.2860095264341" y="653.5" as="targetPoint" />
          </mxGeometry>
        </mxCell>
        <mxCell id="UEzPUAAOIrF-is8g5C7q-136" style="edgeStyle=orthogonalEdgeStyle;rounded=0;orthogonalLoop=1;jettySize=auto;html=1;startArrow=open;startFill=0;endArrow=open;endFill=0;strokeWidth=2;strokeColor=#808080;" parent="1" edge="1">
          <mxGeometry relative="1" as="geometry">
            <Array as="points">
              <mxPoint x="700" y="412" />
              <mxPoint x="700" y="730" />
            </Array>
            <mxPoint x="658.499112850026" y="412" as="sourcePoint" />
            <mxPoint x="800.5000000000002" y="730" as="targetPoint" />
          </mxGeometry>
        </mxCell>
        <mxCell id="UEzPUAAOIrF-is8g5C7q-109" value="PC" style="outlineConnect=0;gradientColor=none;fontColor=#545B64;strokeColor=none;fillColor=#879196;dashed=0;verticalLabelPosition=bottom;verticalAlign=top;align=center;html=1;fontSize=12;fontStyle=0;aspect=fixed;shape=mxgraph.aws4.illustration_desktop;pointerEvents=1;labelBackgroundColor=#ffffff;" parent="1" vertex="1">
          <mxGeometry x="160.5" y="415.5" width="100" height="91" as="geometry" />
        </mxCell>
        <mxCell id="UEzPUAAOIrF-is8g5C7q-110" value="모바일" style="outlineConnect=0;gradientColor=none;fontColor=#545B64;strokeColor=none;fillColor=#879196;dashed=0;verticalLabelPosition=bottom;verticalAlign=top;align=center;html=1;fontSize=12;fontStyle=0;aspect=fixed;shape=mxgraph.aws4.illustration_notification;pointerEvents=1;labelBackgroundColor=#ffffff;" parent="1" vertex="1">
          <mxGeometry x="160.5" y="221.5" width="100" height="81" as="geometry" />
        </mxCell>
        <mxCell id="UEzPUAAOIrF-is8g5C7q-119" value="DB" style="outlineConnect=0;fontColor=#232F3E;gradientColor=#4D72F3;gradientDirection=north;fillColor=#3334B9;strokeColor=#ffffff;dashed=0;verticalLabelPosition=bottom;verticalAlign=top;align=center;html=1;fontSize=12;fontStyle=0;aspect=fixed;shape=mxgraph.aws4.resourceIcon;resIcon=mxgraph.aws4.dynamodb;labelBackgroundColor=#ffffff;spacingTop=5;" parent="1" vertex="1">
          <mxGeometry x="940.0000000000002" y="240" width="78" height="78" as="geometry" />
        </mxCell>
        <mxCell id="9xw5Spc9I-vdvetbcxKs-3" value="" style="shape=cylinder3;whiteSpace=wrap;html=1;boundedLbl=1;backgroundOutline=1;size=15;" vertex="1" parent="1">
          <mxGeometry x="949" y="480" width="60" height="80" as="geometry" />
        </mxCell>
        <mxCell id="9xw5Spc9I-vdvetbcxKs-5" value="게임 디비&lt;div&gt;&lt;br&gt;&lt;/div&gt;" style="outlineConnect=0;fontColor=#232F3E;gradientColor=#4D72F3;gradientDirection=north;fillColor=#3334B9;strokeColor=#ffffff;dashed=0;verticalLabelPosition=bottom;verticalAlign=top;align=center;html=1;fontSize=12;fontStyle=0;aspect=fixed;shape=mxgraph.aws4.resourceIcon;resIcon=mxgraph.aws4.dynamodb;labelBackgroundColor=#ffffff;spacingTop=5;" vertex="1" parent="1">
          <mxGeometry x="940.0000000000002" y="375" width="78" height="78" as="geometry" />
        </mxCell>
        <mxCell id="9xw5Spc9I-vdvetbcxKs-8" value="" style="shape=image;verticalLabelPosition=bottom;labelBackgroundColor=default;verticalAlign=top;aspect=fixed;imageAspect=0;image=data:image/png,iVBORw0KGgoAAAANSUhEUgAAAJwAAADPCAYAAAAAorgUAAAAAXNSR0IArs4c6QAAAARnQU1BAACxjwv8YQUAAAAJcEhZcwAADsMAAA7DAcdvqGQAADGiSURBVHhe7Z0HfBVV+vefm56QBEhC74iIvaCi4IrI2gCxsbsqi6697LquawdXsa6o+66C4qp/G4IgFpSy6oKFooIUEUEBgdB7SSCVlHnP97n3hOFyIQGSm9xkfp9M7r1zzpw55TdPO2dmfI6BePAQJkQFPj14CAs8wnkIKzzCeQgrPMJ5CCs8wpWDHTt2SHZ2duCXh8OF56XuByUlJfL999/LhAkTJDY2Vi699FI54YQTJDo6OpDDw6HAI1wQioqKZNmyZfL111/Lzz//LMXFxbof0p144onSvXt3adOmjf72cPDwCOfCli1bZNKkSfLTTz9JXl5eYO/eSE5OllNOOUV69eol9evXD+z1UFHUecLR/KysLFWfM2bMkG3btum+A8Hn80mTJk1U2kG+1NTUQIqH8lCnCYedtmjRInn//fdl+/btUlpaGkipGKKioqRp06Zy5ZVXSocOHZSIHg6MOkk47LTMzEyZNm2a/PDDDwdNtGAkJCTIaaedJl27dpWWLVtKTExMIMVDMOoc4Xbt2iUff/yxzJkzR4lXWc1HusXHx6uaveCCCyQxMTGQ4sGNOkM4iDZr1iyZOnXqIanPioKwSfPmzeWcc85R+w7p52EPaj3hsNMWL14s7733njoEVUW0YGDftW7dWq666ipVs/z2UIsJB9FWrFihnueCBQukoKAgkBJepKSkqH135plnquSr68SrlYQjhoadNnfuXMnPz680O+1QAcnq1asnPXv2lHPPPbdOB41rDeFoRm5urjoD2GmbNm2qdqIFA8eiffv2SrrjjjtOiVfXQim1hnDLly+X0aNHy4YNG8Jmpx0qkHhHHXWUxu8aN24c2Fs3ENGEw05buXKlfPPNNzJ//nxVn5ECJFvDhg3L7DtmLuoCIpZwxNBYyUHwdvfu3TVOfVYUEI+pMeZmu3XrVutXo0Qc4XAI5s2bp6s51q9fH7FECwZEQ8326NFDP2urYxExhKOaq1atUjttzZo1tYZowcC+Q8327dtX0tLSAntrD2o84XAAVq9eXRZPy8nJqbVks0DNZmRkSJcuXXRLT0+vNd5sjSUc1cIpmDx5skyZMqVGxNPCDaQdZPvDH/4gxxxzjO6LdOLVOMJRHcjFIsivvvpK1WhdB/bd8ccfr4Hjtm3bRvRqlBpDOFsNHIGxY8fqMu+aHk8LN5B4Z599tvTu3VtnLiJR2tUYwq1bt06mT5+uHigrOzyEBqRj0Sexu7POOiviVqNUK+E4NTepMBVFTK0y16fVZiDZdu7cKbfffrsu+owkVNvShcLCQp1cHzp0qIwbNy6ig7fhgFWf3CO7cOFCvaOMCzTSEHbCYZcRR3v99dflrbfe8my1CgCyQa5ff/1Vl8RzdxmIxAs0rITbunWrfPDBBzJ8+HC9Sgl7eDgwMDmIQ6IN1q5dG9gbmWQDYSUcMbWJEyfqbXme+iwfBLlZboUWYEqPPrMbiMQ+DCvhUAus7uBKxYaL9CBmVYA+wUvHRoNsrFRGEyQlJckll1xSNsEfqRdsWAnnNnyXLl1aIxdJViewZVnXR2ho8+bN2jfsY5bh3//+t/zzn/+UF198Ue68806Ji4uLSNs37E6DBfEkjF/UBTe31GVphwQjDjl79mydWYFIbDzDZPDgwfLGG2/o7YdIO4jI3WCRGvitFgnnBuEQVulyZxVqtq4B9YnqxAO1dhrB3N///vfy4Ycf6qpgnmGyceNGvSmIaT8ISr5I1A7VJuHcgIh4Y3QoVzrEQwLWVtA2iPbLL7/oSmWIBolYA8dCzNdee00efvhhJR6ePU8J4F5afrsvWo9w5aA8FYAa4QGAdHBtte9oI2bEjz/+qFKLC41+OfLII+X555+XZ555Rjp37qzq0/YDeXC4WMxgH45YXl/WVNQ4MUJHcrVjqyDxCKFEOmgTRGNhAuqTuJqdxmvRooU8+OCD8uabb+rdXOwnMI4nz3f6AomP2YHajVSiWdQoCRcMrnI6nlAKHR+pQH2iOpcsWaK3MkI+nj3Cqt53331XBgwYoDfU4ERxkaFiAcuQkGpIw2bNmum6OOw5JJ614yINNd5QgqQMElc3KoirPhLsO+oNcXCGmI5CFUIQSPTb3/5WXn75ZXnqqad0gSVeOhcV9hrptJdjIBYPQOQeB+w3YnGsfB4yZIhO3kciarSEc4MrmoEhToUBXZNVC8QivMF0FKoQ4nCRtGrVSslCTO3000/XiweiWVuODemHNMR+A4RDGjRooGoY++7ZZ5/VGCbn8CRcGADx8GRRPaiqmkI86gEBMPKx06gfBGJfo0aN5K677pJRo0bJRRddpG3AVICUkM5KtTFjxiixjj76aJWCzChQHgsdHnnkEZk5c6aWZ88ViYg4wlmgrhgwa4BXJ/GQXqhMbvJhSoo5UCQVz4tjdS5PbrrxxhvL1CdSGoJxHGqU39ir3IXPxg00HMs9twMHDpTx48er904b3e30JFw5qGzbi87HlkH9oJaQHOG07zgXgVjiadyDASksUIWsinniiSd0hS5Eo544BlaiAZ4tTBpkPO+889RW4zl22HcvvPCCSrhwtqmqUStagoSzkiJcK1EgN9KVeU/CHcyYAOy0p59+WoYNG1a2Ghf1auNpkMc+LR2yslScqSrqTBsgGXOm2HHlXUCehKtmMOjWNkLlVraapTwGmRghRCOAyzkhBmrwr3/9qy4qJdxBPupiVT72mK0PFwUPK2RmgeOQdtzgTTyO5fYcS/7aiLASrrIJEAxLCAYQ9WU9xMoAZeOkEOZw22moQJ7pi2F/6623qg22w3jRSDXy2GPd6Nixoy4zgqjcOHTfffepnRfKTtsfIlG6gVol4YLhtpsgR0UGMhgcQ6SfoK2djrJAZRLiINTB1BSEWbFypXwye5XkF/m9yVBgPyET7DSmsyjzUCRaJJKuVkm4UEDloQJRf0i+gxkkpCNkQH2iHimLNvBorYceekidAh4eDVkyDdHmLF4tT/5vszw/I0vyDOGCwbmx5bhxCDuNcq1dd7DwJFwNB2QhyMo8ZUWWQRFcJsyBB0rIggFmWumGG26QESNGSP/+/ZVo643a/nnJcvnP9E1y/6fbZVpmvpQYLrivLfIRNhk7dqwMGjRIH11BfWqrnXYg1HoJZ8G5IQ12GN4sUg8bKhg2zIH6JOTCMayu5TEL2Gl33323Phx6G3baokVSMmWyZM5bLp8szpesfKO2A+UAmgu5mY567LHHNPCLmqculdEXkSjl6oyEc4OBshPlEACVhmpjvhY1h9oDEPKkk05SO41ppWOPPVY9zFXGLtz1+eeS9vbbkvrllxKTlyvRUXsI5JQaIpi/hT8t1KkojkelV2Y8jTZ4hIswoNbsamPUp7XTAMHaBx54QJd3s2yIEEbmyl9l9aoFkjh6tDScOFHijJT0mUFHWOnQm8/kOJ+cnJ4vH4weIY8/8YQGdikTslWnhK8pqDMqdX+gTsTJIIWt3xlnnKFEu/baayUmJlbWr98ovyyfJou3/Vu2FIyT2I0b/PoykB+BFh8TLSeml0iXou9k5fhn5fP/TlDbDzutqtrtSbgIBYSwpOCzU6dO+kIP7LxfV/woSze/Kctzh8jOktlSKq4XjKDWoqIlJcEnZ8YtFee74TL147dk25bNmlxVRItkeITbD1CBW7duk815U2Rz4XjjeeYajenqLkO2kiZNZK4h51uTP5aZ7w9T1YxEDBfRPAlXDmryFe+um3sgHTE2nUkyMtB8Z7/5n1xPVnXoIEMNKe8eM0ZmGUejsNBvp3k4MDzCHRAu4jklEhdd39CurYxKTJK/TZ0qYz/9VAry86uFaJ6XWmvhk2iJlUTnONmxuLu89q/58vKY92QDoRMz4FxE1XUhRd4F7Em4kCD4a4mUGN1SnK195MNXCuTFf42THxfMl6hAWnWD+eFIgyfhgoCa4gGJBGwJ1n45cb0MeeQDmfkdbybMq9Z42l62ZQSqU+BJuCBQR2JykI7pqJEjR0lOzq5qD9xCMOrAM0VYMRyp8CRcCEAsNlSrGepqv1A4P+vuuHeVWwVtfTynoRxU98BFIlg4wCoVAtF2dYlHuFqAmnIxWBJBLm6C5k2DMbGxZj+rXTQpIolm4RGuBsFtp3HzM2rUXAm6+qRNc82h+bg4yOtJuHLgqdT9g76BYKhPv53G0PgkLtaRe2+Ml8fuTpL0Bv6FAhAtUvvSk3AGDF51DiBep7XTWAZVUiqGfNRLpFP7aDm/R7z4on2SkwcF/fWNVHiEq0Zgp1n1CdEskX57ZrQMfThRTjrGDI+RaJuySmX0uAIpLPKTMJLhqVQD6hWuull1iNqEaDbMUVTMCmORpo18ctuABGnV0h9rW7CkRG65N1c+n15spJv/SaF2abxnw5WDmkq4cBngtJ9nhkA0JBsOAqdtmCpy941x0uWkKEk0qjQh0Sez5u6WhUv9tzbmF0DGUr3rjCXuHuEiHAxqVV0MlszYaYQ42FCl3J/NFh3tyN+uS5C+58dL6+ZRsmK1I3/5R64891qhpnMsK4chGk8TwLHwZhoqiJoq4aoSNp6GU0AQ1/SC3nBz4dnR0uMMY8Ml+aRdqyhZtbZEZszxPyVg9XrHOAiOTrFx5xh3mkEyJCNlRXI/ehKuCsFjVSEJn6hPUFrqyIXdY+S+v9STXufGyvYsR4aPKpTHXsiXTVv9N+SgMiEZUo0VIVYy4lhEOjzCVSJQf0gfiIFEw07zT0f5jLr0yYmdoiTeCLnuXWKlpMiRz772P9duxpwSWbHGr3pRmzwyght7rGTE7jMlm3T/eSIZnkqtJFg7jViaVZ+0F5I0yRAZ8kCS3HlDgiGgyFff7pYXXs+T6UaFxpjfbEW7C5Ro1k5jot5KRqRiWv3AiQxsP3LOSIMn4SoB7ukopJH7woIsF/82Tpo1jZZFS0skN19k0tclMumrEg2DYKfxGAietGQdCyQbZVJOTIwjt1wdJ0/dlyQNDengmCWaR7hyUBslHNKoQf0GkmSkUcj2mV1r1pfIp18UyP+NKVSHQbWs+O00yIbNhmSEbEhGeAQZ+WSm4YpeCZJSzycFhX6CRXI/ehLuIGGlitppSKOUVElq1UGa9LpO4ho20TQ3INjkGSXy7Gu7JWsnx5eq2sQhwE4LJRm7nRIlLz+RKCd08hlJJ5Kd68j7Ewslv4DwjWaJWHgS7iAA2XAC1E4zai+hfpo06nmVtLv5n9Kwc09jjIX2Irn1gG337kIlGgFcJJnbgy3c7Rip5kjjdJ/c8adEOaJdjCTE++THX0rlur/nyMQveUWS34P1Ar91AGV2mnEIkgzRGpx+vrS96Ulpen5/iUnYswo3GJCiuLhI42lslGMn6q0Hm5oicse1cdL5uChJThKT5pM5PxbLAkM2kGfsvuKSUl2BbFUw8AhXDmqyhDtQ3dROM9KIec96bTtJ2xsek5b97pSk5u2N6PIPfigQQ8MZsOoTG816sFbqoTLvvDZBft83QToaqbZirSP3PZUnz/wnXwr0uTr+ADBlYPOhyv1EjUyN4Um4EHDbaalGEiUTdE3khbhRktG9nyS1PmqfwS7atUOcokI9FqIhjSAJZLET9XvsNEfOOjVaTj8xyjgDIh3aRsn6jaUyfU6R8venJaWSvcsvGa1jgWSkDOvBAk/ClYNIuCIZRGunpZrBTWyQJk173SBpXfvQACWdyeTPbH47hiHbZ0+Wla8/LMXZW1WSQTQb5rCS0UqlklJHzjkjWgbfnSS/6xUv27NKZcRHhfLY83myfhMrfimWifocjcuxOsRKRi6ASJRqbngSLggMqtppDTMk7cxe0v6Wp6XxOf3EF5tgUiGan2yl2GW/zJaVbz4q6z8aJgXbN+9lp0ESa6cxS9CssU+O6eCTuBiRi7oblWqKmfINOjNKPp9WIksz/TMNbskY7MEGk82TcOUgEq5OCGLkljQ5r7+0vPwOSWjaViVaWc1NG4p27pDVo4bI6hFPyK6l8/x2mlF7kMQ9UU974QRLw4c8mCT33J4ksYZw384rklfezpcvvikx52PFLytH9thpVjJCOMiLrUfX7RGskSvlPAlngNpiCdAeGLWalGp6xzWwajf5ZPv3/5NlL94lOxd9KwV5/vVpHEt4g+koHAy3NGKm4ZLz4qR1y2hZ9muxzjR8MrlEPvpfsarXA3uwXAAi114eK0MHJ0qDVGMfGtJZyeZJuHJQU69MjHwbaiiD4w9JKEy1i3KydF/OkjmSv22j7NyVY7ZdSgyIVi8xQZ85sg/MruydpTJz9m5dFRIVIDEBYLugMtREfX6Bo4Ts2M4n/S+Nl7SGUSafFudJuFoHKziMBMnJXCSr3n5csr7/TCVhjiEZ0ghAEGy1xKZtpPEF10hsw8a63w1IOOGLYnnk+QLZkY2dtseD5QnndgmTlYwIrTOM9zr00SQ5vmOUUcE+yc53ZNynhUY67j3T4Em4chBJV2Zxfq6s/ehFWfX6PyT7x+mSm7VDvUZIgm1VPzVF4hOTJK1bX2l/6zOSfkZviYqNDxy9BzSZ+xUKCv2qG6Jh85VJRlMW34uL/RKtUZpP7rohUU48JkYa1o/SmYab7s2VDz71L85EGrMBj3C1BFExsbLps7dk+6zPJD/XOARGouUZqeSfqE+VpJRUST3+N9LupqekxcU3SUxSsjmqtEwwBqOkxEjGHP+CSuw0DbkYyeiPp/mkXpIj11wRJyccZbxbU1Rqik9+XFQscxf61Xz2Lj/RCgr8Mw0QN1LhES4UjFgqyjM2mhlca8zboGtSy47SasBD0mbAQKnX9ujAAaGBBLJ2GpLRbadxDgjq8znylwHxcuNVCXLi0TGycq0jQ/6TJ0+9lK83z6iELPIvYcKDxd6z8CRcOYgElYrzwMBCEgYUScQWy3ypIV6jHv0ktVNnM9oup8Kg2BDUMcQAdqYBFcwnktEuqLR90OWEaDnpaCPtkn1yXMdY2bylVKZ9XyzFRqh9+W2p2ntuDxai2WMjkWgWHuGCwMBaY57lRwn1UqRRz6slvdslmh4VEwej9Ltpkf7P/mWOrHj1QSnO3qLHW2mEZLR2WpSx0+AJh3Y9JUaeuC9J/mi8zx1ZpTL2vwUy+Pk8WbOh1Bzjv5ML9WklIwS2fUf51oaLRHgq1QUkh840GPWZktZIGp5yrtppzS4YIL446xAY1pjBd4wkzFmxQFaN/KesGfmk7N6xpWzeE3IgFVGfOAQ8+ahxQ5EObfwrePueZ0gb5ZOpM1GPPo3L/bLML7WsZEQVW1Ce34Yr2Mt+81RqpMMMLASJMqRq1PNKadX/PqnX5ijdXyabfVHGg82RdR+/JJmvDZKdC7+RXFSwIVqZBxuw0yAKnEgxjsBTA5PkH/ck6dTWoiVFMuqDPJk0lTdF+xdZoj6RaJDWTSpUvCVWcKzQI1wFQYcGG8A1AnYAzWds/fQ9v4Ehj/knO+Z9IcuH/d14sJ9Loaq9bCOV8pRgSEZrp1kVyEzDZefHSoe2MZK5zD/TMHpisYwY518ZggdrJaO106xEg8BMl+0PHuHKge1MOsreTb73lFINAVxhDskCAhSZejLTsPA7KdiyVmcZdu7cpe1p2DBNkuslqnQMBZaZZ64olqFvF6pEQ1BhhtF21Cef9AllWUA4t3QLBY9w5cDdoRZWfdQoY1jH0fwz6jNv3XJZM+Y52f7tJK1rjrGtIAmDrR5sSorEZzSTjO6/k5j6GXq4G0xljZ6wW+4YnKc3PbsvNiSbBfvpA6RaeUSy6aH6s6Yj7Co1VGfScXZlLINaXoeHA6VFu2XDZ29L5qsPyI7Zn0tu1rayMIddUBkXZxyM086TI257Vhqd+weJimMJ096AE7uN5cCjG7igUJ2EOWgn7aatbPyu6EVniVZjLtCDQLXYcKFAJ9LpDIYdhOoini8mVjZ++qZs/fI9yd+ZLdlGdeI1ajzNEC2pXrKkdDpN2t/8tC5hik0xLqgx+kPBkokLCsJik7kJs8+igQqguvqlMlDtKnV/oFOtbRNOcD7qWZRjJFFAGkEMPM8U424mZDSXllfeI22vf1SSjzhe42vmKNM4//Fu2DZYW9WWDZBm7DsUwlmEu28qAzWWcMCqWQYnXIBc9rx8Z96TFcBxCYkm1SdNzv+jNDjxbJPRRRTTrpLCfHECUg4iYItRBmVZ1cd+vvN5OESz8AhXBYBs1luzW1WC89nneyDVEo36zPjNpdKgy4VKrKh4Y6e5prVMjWTXsgWyasSTUpS1WeuKVLRhDsCFxn4kGurV7jsc0A8TJ0yQ2d9/X9Y/kYBqJ5zt+PI6jHx4dUgMO2hVAWYadDqqfgOpf9yZektg84tvltjkBoEcBqYu1Ddv7TLjwf4/Wf32Y8abXSa5Aclo7TQ22y72VTYptm3fLv967jkZ8vTTsmjhwkqRmlWNalepdhBCpQUDdYSXCOkAx1b2IBJLizZVyTjnd9JmwEOS3P548UXHIMr8MPVkrdymKaNlxX/uk+z5X0vermxDNALA+XupTySc+3coHE79ORap+f2sWfLE44/LyHfekW1bt1Z6n1QmIkbCWbiJiaSzxvjhYB+ym/ISMlqY3nHt1zw+yf7pG1nxygOyecq7UpiXo6qTVcDuOvDdzhJU5uBTTxYE+NfRGbjKph8+/ugjeXTwYPl43Dj1iGsiwkq4so6qACoyUNZeYjscdbLPueCW204z351S4oOlkj33C8lftzwwHeVfNuTPs8ch4JOtIlK7InksmD6zc7QsXY8JmtmgFatXr5ZXX3lFJk2aVCZdaxLCRjjiWIsWLQr8qjzQ+UgSazhXSiczchDBFyWFW9fJuo+Hy7ZvJhjHtETyCvzeZ3A8DeJVZJYgGOXlt+ewko3fLBBo0by5OjUW7KesHaZuq9eu1YuwJqLKCcdALFiwQB4aNEhFPqBj7HYosIMQCkgebKnDKR+U7C6Qrd9OlOXD75Hthmz5WduUaHiwEMxdPmSnnYdyvgO1BXtSVwcbUDYOTdMmTaRVixZKOntsdEyM5Jh6Lc/MlM1bttRIyWZRZYSjgxYvXizDhg6VZ4cMkZWmM0oDA2IfTcpnZYPBh3TuecryEDzozDRs/t9I2Tj+P1KQtT0wUb9HbdM2viPlDheUFYp0kM3eTB1r+qlRRoa0btlSF4VaEHTON7bbylWrZN26dVXqvVcWqoRwDAZvVH70kUdk+rRpOvh0rH1XPKpBV9QSUDWdSlplwQ6evcoZBOpzwHO40my+3dnbZKeRaNmGaKhKC9KRZpDNnsNNGNJDEaiiQIoBymBLSU6W1q1aSXpaWlmawqStW79eVq9Zo+aK+7z0b1VczJWBKiEcauerr75SyWDtDkAn1DeSLdEavuYKtZ3IJ/sOSIxDAIRDFTIo+1U1gfoBzm+fUGmJRr04dn/HB9f5YNtAfiQawWY+OR+PcG1p7LRmTZvuIaHpS7TEduOBrjAaw9pptn8BF3G/fv3kggsu2Gt/TUGVqVSkwK6cHI2Z0f10JLDSjSs33nQknU06dzRVtpq1HQ5RsOuspDsQQZBcbnKSBmkh3/5UFuc51MGlPwDH8x1yNWncWFoG7DSbzifhF7zQLVv9T2lyA01x6qmnyosvviiDBw+WNm3a1C3CWeSbgWL59S4ziEg02wm49PWSkiTVdGpsgIxc4ZDuUDqqosdAIFS826N0H8t3NtJsOkSz392w+9x5QUXqAoEgiZXsXGiozVbGTmPu1pbBZ4Gp6xrjea7bsEEKQ9iNxxxzjDz22GNKts6dO1fo/NWFKiEcne9uNNKCwCRTMSUmjc4mnS3WdDrSzj4F3J1mY06Hg2Ci8BsCoY6QesGw5EHSke9wz78/QDC3+sQhyEhPl7iA+jQJKvnxOlcZqcbCT3dbOA71efPNN8vIkSPlkksu0d9VVd/KQpUQDqIce+yxqjrdoMOwjbKNhIF4Vs3SSfGGeDwAsCywaYiHtKMTGRx3Z1cGKC+UTcZ+pJ/1SA8EO7h8ljfQpNMONpsXojVv1kxjakg7oGlmo58yV65Uey0YqNorrrhC3njjDbnzzjv36eeajCoj3J///GcZOHCg2hJ0shvYH3QoNp7PkM6qWghYz3ReMmo2MDAMhPv4yiaewlUm56zoOQ6mLvQJbbHtbNKokapPpDsXF+Az1zgsmatWycZNm0LaaajMl156SR5//HFVpfbYSIHPdFoVjKAfFL3dqFE81nfffVe2GmM3GHQYtluysefc4Qs+d5sOx36x+5FIVvog/VDTqEYGkSXfEBMiM1AMDvvck/385nzMf6IuWSqOs0K5HGedAjs/i31FmZyTPBCFcinf5qUMvtuYnJXQlMG5yG9JwSf2GVLbXlB2P+3cYtSnBpYDfeDGkUceKTfeeKP85je/0XbYYyMNVUo4NxjkYcOGyfTp08sG1A06kKCmDo4rjXwENzGWdSACaXZQ3YSDEJY4lUU4Nn4fLOG4KKxkJv6I2mtspBrpFjbfdnPubdu26TnZZ0FdWSrVu3dv1RjctBPpCBvhAJJi4cKF8uGHH8rMmTPLBs0NBhS1ymAxGIAqMuB4vAwsFWZYOB4yQYCqItzBSDjIYglngZ2m6+tMPr2YDEinfLx35j4tWd2gXuedd55cddVVqjo5d21AWAlnAQmmTZsmo0aNklXGXglVBSQCg+SYgXanM9hIvOIAGQEEgRgMaHURjo38lhh8csMNmyUagGzUf9PmzVo3NzkBZXTq1En+8pe/SLdu3WoN0SyqhXCA024yhvEXX3whY8eODbl+i4FKNPYd5GOlhsIch2otMgMMMUpchOSzOgjn7kLKx05j43hLKGYJKIegLXYa0juYbK1bt5ZbbrlFevTooVKxNqLaCGfB6ZFyw4cPl59++kmj/MFg0LnhGFuI/LbKkMDad2anqloGEoIxmBjnoQgHuch3uIQjjd/k5XxcHBkZGfpZRjTziTRmThanydbdwtazV69eGuKoDXbagVDthLNgkOfOnSsffPCBLmdiUIPB4BIygXgQAFB9yIOXh1fr3gchkCaWxMGEI57FdrCE4ztEsaSCYJRN3awKJI2OpVz7oJtgUNZFF11UZqdxvtqOGkM4CyTSxIkTVc0SJrDEsmAgUbEMbokhiLv6EI7jUbMWGORMZVHO4Uo4K9EsVH2aMtPMFmxrIXWx0yC8JaYFeSEYnmfXrl3rBNEsahzhAGTAvhs/frx89NFHSoBgMNg4FXiBbmkIMZR4AdKwsY8yrAd5sBIO0nI+vgPKQA02NBsEtITik7pssvE0U24wWrZsqXbaueeeq3ZaMBlrO2ok4dxYsmSJvPLKK7o8HekVDEiAlCKQimNhm4OUIz/kY58dWIh2MIRjs2VShtpp6ekqHS3Yr2UY1cncZyhg20Gy2267TZo2bRrYW/dQ4wlH9TD6se/ee+89+fnnn8sIYMGAq31nSIAkgkyAfHxH2uHV2n1ILCQQZNqfSqUc0vnEK04w0jHNSKRgO41tB/G07dtDruRAqhJP69+/v84vU2ZdRo0nnAXVJJwxYcIE+eSTT2SzsY+CweAjsVgIYA4oI6aSzEg6iGTtO0jGhoTkk7KtaiY/jgngfgE8R+w0q1ItIC5znip5A/ktyNu+fXuNp3Xv3n0v268uI2IIZ4HEWrt2rbz//vsyZcoUHezgJiCBUHmsLLZSizxsSCE8WvcxSjgj4ZCCkJY0CMd8LVJtHzvN5EN14v1SH5sG+N6kSROd98QDrYt22oEQcYSzgCSzZ8+WESNGyNKlS0OGHVgUgFPhDqMA4mIQFTKiLukCK+EgB8ep+jTq1lKF/ZTB3O0m4mmu8gDpkAs7DacA58DDvohYwllAlO+++05Gjx4tmZmZgb17gA2GikXiQR5LPJoN4VCzhYZo2HDkTUtLkxSXnQb4zro08ljp6JZafD///PPluuuuk6OOOkoJ6yE0Ip5wFiyDYgnU5MmTlRjBzYIUrEaBPG7pBAEhEa824gafYKMe22/jxo3qeASDsjp06CC33nqr9OzZs847BBVBrSEcQGIh5VgU8M0334RUs9xLYcMobm8WWKmFpINozHviIQfbaaBZs2Yq0S688EINeQSnewiNWkU4C6TW119/rcugiOOFWv5jFwW47TtIQ3cQT9u6bZvaesE0QuWec845SrYjjjjCI9pBolYSDtAs1CyS7u2339ZpsmAgyYivEVtTohlVvNUcE4qghDlYxXHNNdeEvF/DQ8VQawlnQfOYJnvrrbeUfDgZwSDsAclCkRI7rV27dirR+vTp48XTDhO1nnAWhDx41sk777wj8+bN20uKIb2w95CIbjRq1Eiuvvpqufzyy6Vx433f9uzh4FFnCGcBsQgYsygABwNHI5hwxNO4WeWGG26Qjh076j4PlYM6RzhAk7lpBeKhapF2xONYdXzmmWfqBPvxxx+/z/0JHg4fdZJwFninTJPhVCxfvlxX3XIHu/vOKg+VizpNOEDzUadMdbHGDc/VQ9WhzhPOQ3jhXc4ewgqPcB7CCo9wHsIKj3AewgqPcB7CCo9wHsIKj3AewgqPcB7CCo9wHsIKj3AewgqPcB7CCo9wHsIKj3AewgqPcB7CCo9wHsIKj3AewgqPcB7CCo9wHsIKj3AewgqPcB7CCo9wHsIKj3AewgqPcB7CCo9wHsIKj3AewgqPcB7CCo9wHsKKGvlsEXeNDvVpWRUtI1Tr6+ITuvw0CDTcfFRVF4RdwvEiDn0ZR+B3MHiEFi/qnTp1qr7QFpDXbsFwp7nTN2zYoA+W5qmXB7qmiouL5N5775XTTz9d3+VlwTH+je/+zf8SkUCGWoYdO7Lk1FNP1deeZ67IrLp2mk4NGwyZnDlz5jqnnXa688ADD+rvYBQXFztXX93fiYuLd8aPn2DyOM6vvy5zzjmnhzNw4CAn+IhdOTnO7bf/2bnkkkudzMyVuo9yP/jgQ9NlPudPf7pOywgF9o8a9a5TLznZ+f3v/+Bs375Dj12/foPzzDPPOhdeeJHTunUbJy093WncuIlzwgknOn/84wBn0qT/ar5Q9Y9U0JTly1c4bdu2cxo2THPMRR9IqVyEmXCOM23adF7j4vTu3SfkgIUi3Ny58/SYvn0v2YdwWdnZzhlnnOk0atTY+eWXxbqvIoRjH0ROSUl1mjRp6mRlZeu+NWvXOqec0lmP9fminGbNmjtnnfUbvUhiY+O47jXt73+/2ykpKQmUVnswfPjL2r4rr7zKKQnVcYeJsKvU1atX6ycvQKtOFBTky8CBA6Vwd6E8+eSTkpqaovufe/Y5mT9/vr5Zhnd5ZWaukGnTpsqsWTNVTf/f/72udecd/WPGvLeXGq8N+NOfrpWTTz5ZXwX/w7wfKr19YSacU0Y4/1PBq886X7t2nSHSNGnTuo307t3bCFD/S0HGjn1P7chnnnlGTjnl5LLn/LKlp6fJ9ddfL3/729+koLBAHnnkEb9x5wI/KSd4s+Drno20UPn37AsF9vrz+Le99+1dlhv+dHe+ffMnJCTqmxqxbS+44AIxKiVwdOUg7BKOdybQO0ceeaT55W6s7Qh/vqoE55g0aZKpy0Z9+1+jRhmBFP87u6gXpNsfINw9d98jl156qRQW+h+/T7V5MDXvch08+FHjiNwnTz89RF88Z1+xZDFz5kwZOXKk/Lpsmb5aafLkKfKPfzwsd5syje2oad9++10g997gPEuXLNU8XDCm53Rf5ooV8vLLL4uxjY3kHiSvv/GGbNmydZ/+5LXuHLtz5y59ivvrr7+h573//gdk0aKfVQa0bdtWOnU6Wh+yzZt8KhVmsMOGkpJSp1ev3qYLfGrLgSJjs5nOdT777HPd/vvfT53zzjt/XxvOHNO7Tx8nNzdvr23jxk3O6V26OBmNGjk///yL2m/YVgey4bBNunc/R9O/+urrsnT2X3xxX4ZI67kjK0vLoszgMtwgfcOGjU7nzqeqrRkdE+PExMY6UdHReg7socLCwrJyrr32T7rfqGenT5+LNR9bdHSMsRt9WkbXrt2c7J07A2fYA+pz6aWXaZ6PPhrnFJvfX3zxpZOYmOT4oqL03Gx85xxjx75fZmty7vbtj9D9L7003ElLS9d8ev6oaOdf//p/aiMzTjfffIvmM2aDHltZCBvh6GzjejupqfVNQ0QbQgfk5uU5p5/eRTuwbDMNDUU4jtsrXyAv+xMSE9WD/Otf79RNB8WkhSSc6dA2bdpq+po1a8vSqeMPP8x3WrRoqWV27HiUY65+Z+z776uDgUPjJ82eAvm6adNmdSri4xOc66673pk4cZLz3XczdbAvu+xyJRJe9E5DIPJbwuGQJCenOLfddrvm5biXX/6Peon16tVzFizY11OcP/9HJyU11TESSPtz5MhR2ldHHtnR+fe/n3emTpvmTJs+XcmDZ41TZPuRzRKuQYOGTrt27Z3nnvuXnpcLdNas7wP5Sh0jcbUPHn30scCZKwdhJJzj/DB/vjaCjY5Yt369s7uoSBs7dOgw3V54YagOXigvtU3btnrluTcGj7AFZVrJske6yH4J5yeqT7+7QWcvW7bML2Xj49VTtXkJizz51FPOtm3by8hXJg1M/e655959zkXY5vjjT9C6TJgwUdP9hPNfPC+++JJTVFQcyO3vJ0JGnO+aa67dy1PkG32EFLzjjr8aqbnbOaJDB5VOX389da9z83XlylWG7H4pu3nzFk33E06ck046uWxfMGgX9SIf3nhlIqwSbtiwF7UR6RkZ2tlIIhpMm+2Gij1QWIQBoCy7Ec4gLJJav77z6quvOf/99FPd7rvvfu3o/REOaUR6Xl5+YO8eUC4qcN68H5xXXnnVufXW25xu3c7SOlH/Ro0bOw8OHKgqb/2GDc6RHTtqaGXJkqVav+ANace5UK3mZxnhevToEVC1gRMb8BUi1KuXrIRftny57gPU209enzN7zhznk/Hj9TtqmbRQ577llls1D+rX/CwjnLHdtJ2hwP7nn39B81U24cLmNPAqyM8++0zM1ShDjDGdEJ8gQ4cOlVmzZplmGT6ZPHY7EKzHaDd7QHxcvL6u6KILL5QLjXfFzMH+wGEYxoAXupl+0O8WlMtL3E4++SS5+eabZPjLw9VAJ+9dd/1d3zr4z6eektdefU22bN4iWTuy9G02gwYNkgF/HLDPNmzYMC130qSJrnP55LLLL5fY2DitjwVfM4wT079/fy3zzTfe1P7hsIkTJ8pPC3+SPhf3MR70KfLFlC9MbkfrNWDAvudlI7RDHt4v5j53ly5d9HN/sC+643WdlYmwEI5mLv5lscyYMUPfY8X7Rj///HMxdor069dP1q1b588YJlCfE044Qfsbj5Ev7GNAzMWtm5uEDEtUlE9SUlLkmWefkZHvjNT9TzzxhL6ry2fS8vLz1CNlSi7U1qJFCzH2qx5nkZLsj/0Fg/P1vaSvvsr8yy+/lF27ctQDfv755yUpMUkGGS8U2Fedr1q9KuQ52YgKGJt0n7cgHug16TpeSxabivj0leqViSonHAOXnZVtJMXNkr0zW+644w5p376ddO3aVd/Ut27dWjEekw5yuMBLeW+//XbtWUIJRolQUTFGt76u8qabbuLnPkAS8UbpK664wlwsySrpeGcX0rVNmzYqrdesWRO0rdZtdWBTqVwB9Dy3p7Ro3kLmzJkjmzdvlgU/LdDvxx13nBx73LFKSt5KDT1vvOFGjW+GOrc976CHBlXo3IxXcVGxLPhxgWlrjP/CrERUKeEYtFWrVuvk+MyZ30m3rt3k/vvv1zQG9q677pKGRmQz6Ei/UIMcDJVCrk0vx0NA23ZtlSS/LvtVli9foWzq2fNcTRszZoz88MMPIevDPtRUbm6u1K+fKp07d9aYIjGt6dOnax7G1W6Ato0aOUqWLK54TCs+Pk5nQnjtJnG/zz79THJyc+Syyy7TFwoD1C5aApW/fr1fSwSfe9xH4/TcXPQVBbMMKzJXSN++faWdEQ6VCjOAVQLM0dmz56ixz4arP336DH9iAORhIhxPqnXrNs7Wrdv2P5dqDF/CFRje7u2Kfv00Bnfwc6mlOulPnqefHlJmZJPfSAI91/ffz3Z27trlFBQUqkeIx7lw4SL1VvEMOZ6iZ8z4xtQ3zklOTtbFCXn5+XpMTm6uxhbT0zM0DEEadbFhkTfffCtk3SxwBAidkLd5ixbaJ3uFccyGt8ow0hcsPsgvKHAKjCOC40EaXvaxxx6nMUuOs2GRZcuMMxLi3Dhh9es30CgC5VU2qpxwrMSgg39csCBkAxmYfv1+5wwYcI0GcQ9EON0CBC7bAvsPmnBm24CHeWRHJympXlkMasuWrTp4HBsbG+uceupp6gUSTzvjTOMNaxzRH7JYv369vyxzHN4sacTIzj23p3rUZ5/dXX8nJCSqh164e7fmrSjhaMegQQ+ZvH4T07/CJpAYgFGdWj/KO+bYYzVgfXHfvs7RRx+jQV1inMtXrND2cuyBCMcF9/DDj2i/aognsL8yUWWEA1yhNIqO2x9IsS49gHDXX3+DxtaQfoB0rrbyNsgLON/HH3/iJKekaEjjAKdXKUaYBuKtXbtOj6UukydPcU488SSVzIRc2JBUJ598igZKg8vkN8FhVsGQjyh+RkYjjefp4LryQSICt++//8EB6wbmzJ2r5yQcsnTpr4G9e4MyRox4R7UE9eX8LVu2cp588im/ZHPlO//8C/TcLOVyn5s2f/nlVxpAZ4kSF39VoMat+KU6pjNkR9YOOaJ9e2nQoEEg5eCQlZ0ty5Ytk/S0dA2BWJsmGMXFJTJ58mRZunSpLj7EJiOv7ZYVKzLVAwUZ6emSbrbgUIaF/xBHV5VgeyUlJUl9U38jKdXI96fyb0+Xl2fI2zIt9pff5lu5cpXxSGMl2XjArIBx59/73ISVAl8NqO/o0WMk2/Rb7z699T3/B67ZocF7faWHsCLsq0U81G14hPMQVniE8xBWeITzEFZ4hPMQVniE8xBWeITzEFZ4hPMQVniE8xBWeITzEFZ4hPMQVniE8xBWeITzEFZ4hPMQRoj8f0nhpjUp9YjjAAAAAElFTkSuQmCC;" vertex="1" parent="1">
          <mxGeometry x="420" y="453" width="156" height="207" as="geometry" />
        </mxCell>
        <mxCell id="9xw5Spc9I-vdvetbcxKs-9" value="" style="shape=image;verticalLabelPosition=bottom;labelBackgroundColor=default;verticalAlign=top;aspect=fixed;imageAspect=0;image=data:image/png,iVBORw0KGgoAAAANSUhEUgAAATQAAAEBCAYAAAD2NlmBAAAAAXNSR0IArs4c6QAAAARnQU1BAACxjwv8YQUAAAAJcEhZcwAADsMAAA7DAcdvqGQAAJrJSURBVHhe7f0HkCXJdaYLnrz3pqosXdXVqlprrbUAupsAGgABUAuQb0jujnE4trZixNrazu7azNjY2Ji9Z292bYfikUsOhwQlqKCBbgAN2d1AA6211rqrS6a+Yv/veJx7/UbdzMqqrmpkVsVf5RkRHh4ujvv5/biIuEMdwQ4y8iiHhoZsUAJDxXH/0C6O/ehYrTjr4cDi3xuUpVNERkl68fanWS7zSkWUIi9BO6vB2kGT7E8K/aUB5RLlIfI670RDEA5uuz60yPPZLUtxDCyU74XbddLFXPe4G6E9JBfFI51OKx11PWT1gen1nlUNdNNVi9sPfXofCE2EUFynwqTM9Wdxb0IahE4hxBzEM4jQcixdHHn8Kc7+vPfKRTNX0RzeuPdZRjCYkHtYmhwOHXqqnOe97Vcp70Od/Wtg+w/S6cmhJ/F+RA7y+0vLVU9ZOkPQc9RWXvoeFiK0cnsIpBA/6XrcG5HTQWXNZQDytpwjD9fTxV5Zg4jiuZqIC/TSKtpQN55aLxfZc4QL3aKO9qcTPciE1lNYSCZlo9eAHCVliIIthDxzKnJxloSSjoORP7dQmL3Ry383T0RURJATKnlBuUGu4Iunm8c/CD05HFj+3wv2zlu5aaQGt38NbP+R8pHEToOPfPW3kcjBAcmpraeG+ukLxcnRK2MWrtC4dOiXV3977I9ruSCvzx559Moad/v1LJdSoFe+LBrF37PCEvaWAzUa+YgOxWXZl7c8/pDs0nBIJU8W3SlH4RJINjmIb5DIyqD5RBOCvYlqsYIudu9Asa80VyZyyUZ99NdJf90dWkSbCYTM6f1z18vz/kIEVSKzHN625LiPeibrv2irmRwiXLiECLv80ctzQumyD7066Hdl7LudZO2sIK1UnwcPB9VC6x8S7l2xOfODHvsv3OfnT7T0j1hTZaT4EeBga23xvAxGeibSxELoR8/aTOkmkxoslP9AXo59hQX7G/5AkdcZ6SQFLpCVNSGFjaHEocDe5c7rMSEPs1jbGYwemeUzoiC3BvrTSEhWeXGxV76S3A7tcHz/0VeOTNXJZ07rZTuoK4fC6gK9svXayMJdg8IXt1L7SfIK3XX90TlTUoG9LbeE3tm+8b4QWmSoP6le2CSoMnmUURJdoWWJWPYucurFA/uKO5CeydOB1MqVRh2U0907B/3oj3Pf2N/wB4qmp5TK3ShSwsfJvMhEu9vo2vIlzFLleXCRyyTynLB3fhaTWcTTbY4qXypXUdNF2wJ90wmZcpNmFqyL/aXXQ40+mS1GaFnA/jL3P1NGHkeU3X0yWfUP53vzY46h1Dn2xxyxpuf2R6IHvWWS+P5kYH8Qcefx9wnnoIBqQSxxTGmgPrkKHfx0eziEUe+FVFL+pXQjbT+XoHtKW2qIhwMo0FBLh3Lt9hAyyYveL5fDCQvLYSG4CHPhCMSQy6f/fujWAsjCHshw9CBbaHHsmea5SZkjrRgl4eUWWspOKkZ/hxCCTuH6ke6llNL9/RUEyEVRrpC4xipbLO5yaQ8oH8UxcCBxLBX9Ze415lTKok48R0Vd+b9BdXBo0D/kKQ91+3vyHLnMcnni3/bZsYS8PnP1Sc1W8csrQvRPmfTSjPu9p5cXoo7zsuSlzXUxodChTAH7rDmd9+4kcBff0BVPp1t3RTsq/IMfaG/5tA3oH1kFlt7e3ldC46zXKAavluXZ6TN9i2P49F/3hJA3ykX6gYGg0qJC2lmciBP/skKRh3IKka9A935+o/Asi36QSf9+AvLwtl2g29hKCvF+5nLQHE55P9i+UK6TfDjE89wvq2iy2hK66frfApJJLqtDOa/4ntFOeY36Kzy7Z8gzypKpa59sF+oEAmUZJn1J19HOW7rkycXpCS3M+YM4lk5oSw95wGDFLDlmYMIdOGhoqbHxtyfmg4Oo2LoESi4Xymkh7+4xwOO5W1mIEifnZegrYE/2hwokV5bp3kiWk7vCZ38QdZzQq+VU1ryM/fLY2/UQ+T6Q/BxKkJ92f1b3Qr88BqO/HfQQZV4sCuKHzJLUkG1T4fN2FDLvyZ15N57ZX3keEgvNQS9I1C3ZOk31/PNzcvNms9PWnpwym5m1zuys2dyctZpNhVMhFdbaaqx6DmZ2dq6pcHUpV2NYrm61kVEbGh21zriOq8ZtiOvhUTPdr+k+x6ig/bXQsAZa726z9s6d1pmc9kpst5k2b9lQUzRMT0d5yCP+ymetJT/yKxdHnRQxIpPIjHomlYXy2LDyWq9ba0RlUlmGxsatNp6c4Tc84mWVAOQG76o+mEi5leyV7/aM6kPlb7/xmnX27FY+lZ8Tt1p90yarjY55yL2HfgcP5YWl6K07c2o3ajOmNtNS++nM6VztZoi2U8je5c8eM5wwlFligXZN8lSELlPJt6Nrn5hW/fgm8Jru1ST/8VU2vOUYs7HhFI4636N0lX67Oa90lf58y9qtltXXrrPa2jVmqyYU797Wy08SIc+Upx6ztVvSRZWjM4dTWaZnrDk1ZUOzc0kn5yVXyim9RJ5YrG2aI3G4rCQz6WVH5xzR1U694ec4bzeNhnRSbWbjWrM1q9T0R6z95ms2/+qr1nlru3WGVRcjemb3HhuamLD60Udb/ZRTXSc8j3K0/v2R5z4ILQnDG0sRa4oewRQNr3jcw6jSEYLNqqHNq+IllM7MjLWnILFdNrRn0jq7dlh723Zr7thhzd27VJhJ3ZeTYJMAZQrjXEA4FUkFrEnR6yiUNx4JaMM6a2zY4NdDE6u9AdYnVuk4LkGJMCCGghxokLGaAkJAUXCuPf9SgLl7f2zNp5+x5htvW03K0lGFNjtzKo+UQxU9NNdUZavSi7xy30TYkFyqeDn8uzKTxKh45cEJd0TKMjYmclhlnYkxG1JZauvX2fDGjTqqPGvWWG31hJRjlStIbYyyi/QgQuROWQKF7EEyzfvLNAjcV86cJADPKbdyqrPdU2pwb9r8U8/Y7AP3WuvNN5TXVTZ6zdU2cuGFVj92qzfAIdVJrhwpraI95G3D0QuXozeEKU89FLKDQCTn9rRkPqP2A8nuUEezXW3n3XetvWunOkV1jKqTkD+dDR2iE5qOvU6miFqgc/TOhTQbqbO0mjpBnQ8Np06nMywyO+4EG7/hOrWvCVdaOrjWCy+pXbxh7dlJG5pOnXJrumUj55xhjTNOt9rRxyRFLtI6dKDGeiC9fBieF5i6xrig/XbUdpFVB91EJ6V3HenfkPSwLX2ck1w7O3eY7dllcyI4Og/KWMPYKDoJOgRvxzXISmSvc/TN28SoyIn2MToivzGrq/02Nm6xxnlnWe3kExRHzWalX7N3/8Cajz0pvVUbn5Bx8vbbVt9yrA2fd46N3/JhdZ7SA+ItVkf3xzA5OITGfQloTo2t88qr1nzuGWs/9bS13nrHWhJUZ5cIa3q3hKreAGKgZ6ARqncbmmOViR1mOhZCIz4nNJ36segREslJYAgUdoesKLiEWRep2WoR24b11jjhOGucdpqNnH2ODZ9wktm6NRK4hF8gxBMF59rLKIWY/NM/sdlv3mHzTzzlfl1RtpXvQlliXsfnHmgsRb5DlLUgl6IcXeiccnh5pEjt4kje3CpTQ3DyXquybDnKGqecYiOXX2bDZ51l9WOO9WeJo4siPRDp5GUaBO7TyHuEBpnJqWyzX/+mzX7r2zZ7551mu9TI6WSk4PVjj7bRKy63Vb/8yzZ88kk2JOKNaQP+prSK9pC3DUcKV0aX0DpSkLxI5EYWQ2enlOqxx2z2kUet9fDj6tFfl59ITRakWxWykKPjcFA/Qly7pVwGb3YwEY2sdN5mEcQTVx0gkMjI6rU2euVVtvb/+q9duVpq260nnrDpv/sHKeMPJSvaAu2WttCxsZ/5GRv76Eec9GsN1WGK5RBi6YTWbkpeIuPOa29Y84UXbO7556z97DPWEonQSbT2TKdOAZnKasMicx2lg0CGKidHGa4Ot8gEaVyy2JCl/OiwHTofEtkRrrZ5g43ecIONfeTDNnLeedZ6+RUR2r02J1l6moy6sMyOOkrWrtqa4hhVW2+ceYbVth5PZCnK/ZDoooSWT8jmhEb/Fg2vvXu391zzzz4v96y1Xn/T2q+9IveatXaJ4CSwoVnMWglWQqq56ZoySsLMVfl5Iag8O05gC2QvFht8bk6PNmSNdTBVZdnUj9osJRTjn3SiDZ9/vjXOEbFJUD5EdesC9BSNlCkrBLv7//P/tZkvfNHmH340VZbfIy3yzlVSBCemBfKGmTwIahrFWQ/E6YoFICwRXG1MSrFelttRKsM5Z9nwZZfY2PUfsNpxRyfrjSouosrbcYLy1q2jHryM6VTH/I7qcXLSmq+9blN//hc2c/s3rPXMs04YISPyUxe5jn3wAzb6sY/Y8IUXiXRlGXusKW7iSVC6QfilDZJYCoFueypeH/PnJc/5N960ljrE5gMP2tyTT1lTeWm+9LIIdrcPi3wU0AXnWT1GhyhEeyoj8lZTunmYVA+6r/ORc89xJVz9f/gXNrRuvayX7bLc77epP/xjmxHh90FtZNVv/LqN//zPifSvcGv6/QD6F6AUtMXufi8IV1Zt6+1tSSdxL74k3Xxd9Sxie+NVsz17kpU207SadwYpPtr8EIIQikMXuT4EwXVJTUC2oSOdcVloZ55mq/7Zr9uYSK2+fr3NfPtb1maUJoLF6BnSyGRo0ybvmOqbN/tIC2tt9DJ14pdc3G0j+7PgUv8PQnG+FzpoDULKGN8jp1HIwmq987aGJ0/ZzNe/btNf+arNffmrNn//Ay7Atu51ZMrWRWbMNdCbFcVWvOnMLZnCIQh8eyklYvAs6JzCxb1kAXGVuNsd1p9MZJ/neGObeqEXbP6hhzRset17ndpRR6fxuhzzJihaslSoyBTzUKdps/fcY02Vqf3m26miXOG4rzzqcsjloQrzmiyeU7jceV4Lp/9dRP5BlNfTYEur4iJH5MfnMXbtUQN8Wwota/fdbVZbo6G2htk1WaE+rOF5V8g8BV11STblo4feBWXvQgTRlozm7vqBzXz5K9Z6SETuypHCeD7V4Nqyvucff1JyPMrqR8t63LgJ8SvfhOqVLNVycY088rQK/5SvJNehoWQB+PBSw8h5EcfMbd+wyb/6G2vee5+sihfVjnbLWoRgUykSKaW4arQrRZg10YQi/3sjBUTWngN/sMil5NnWEH/shutt7OabpJAaRmo41Z6asuYrL9v8ffd55w3Is9ed3PBF54kEz7P68cerT1IbO8RIHSl1RM6LtuzlkF9LVMcQUiMlZDkrvaSDnvn2dzTMe8L9Ozt2WWeaOUj0MnXUNCV022uMepNz7SrOUzvtIa48D7rnUkQvPAbp7hYNNS+6yFb9wi/YiAwL01B2+vavW+OoLTa89QQfetZlCdc2yAJWGx8+/Uwb0bC9ec+9amObbfiU07xMxJZiXBqo00WhplycKcPkWmhJCeZfflEN73bb/b/KovncF639yCNmqni1vBSIqIeGraVCovusWODKrL83SC85LBfC589w6gpQuOSZ8ujKh/BravBDab5g9slnbPKLX7Fd//V/tblvfcctxx7Sc1QKTv2EnsclsfSlUYQF9O77FNwCGNQ4AOqVVAx5Jae/bpo3Nfyd+tM/ttnbb7d5WSw9JDnleesh0mAuCast+eQpU5+d6WnF+bxNf/6LPiQIpHxKOQrZYhm1p6ds5o5v2fSXb7Pm27LEZ2f8HujlX+dKBMef/nRT+QLRnpiCmJcFsedv/852/9lf2OyXblOH+I53UNRpGa6A7t8f39KQnkkyTj6BIXUWo7LmR6++Qsp4fprSwJ9pBuaemKMrIeqy107eP3Tl55D8ZTww7zn99dts1//2+7bn93/f5u74ttr8G74wp0xaXUVwPSmeAoP07EDg2UEejbpGRufY+E03aqR0jJlGTgyJmdZglAIPMHXTevUVWY4v+9RK4xgZHOo8WjWNGFQwbz8HgEWHnH17T4qhQWdawxM15umvfc1mv/U9n1NwImOSnCFToVzdMX2hwJ0REYXPeakHU4GZUHR/JmWdRHTekBIzKYtQvMsolL+pOKksmdFpEhiymk+9No0sG8pQsQBl9DkuziXQ+vo1Prk9esstNvbhD2kood6hGB5EVmm0e/7b73qPNvfAw8lTSI1Wgqb3HRmRhVTM45F3HCtljl6DR6w0uBBv33CI4ErU/XTfsz9XTHDPQyIezOFpy5HeyI032OhHP2wTv/hLGgaOSZ5YA8x1pAfSkAMC44pJVU4gMxyJJtnoCT9ye+5BLKLbbfLPPuMT7sxR9ZDKE/MljrVrZJGo5/3FT9notddZ4+RTijyGDADPpbRAVpy+tD2cCj//yGM2feddNv3Vr1nryaet89a7NHspXsgzLeEDpihYiaQN2di4K0HMpdKmfEVcLp50i1VydlKSQmHdQUzJPw2RkB/TEbWTT7TRmz9oYx/4gIb6Z6d4SVvtfeauu23yT/+HzX/vLo836pXV6rFf/2Ufco5ddZXa1Lj7Hyr05JdKGMPMNnqpofncd74ja/tum3voEScy2hRlpP5SG0zkRbmibaXJ/FG3RlmBZ8Lf53bRRelg6IejkCXtNl1LnrrvTn7MIdbXrbHxT/y0jX3sY1Y77TRrDI9qmPumTX3li2nAIzQffsxqmza4xdaRLjNHXFu9xmafeszGrpSeXnF1Cijkye8LixJazDdQ+GT8qZm9/JLN3XuP7f6TP7a5+7HKZLoWCMWHiCCmNit6THLLjPeVSFY1WL0bWyX/YatLIdtMog4zsS8hqgGxgsIkedqqoTgVzxDzbzunbP7dHRp/71aaGodPz1iL8fjMjA9XhloSLASHQ+DqdXr5T3lDYCPXX2er//lvWeP88622eUuR5wIitF2/+7s2/cUv+RxOsgKSZenhVFE+Ob9aZAKhqAxWV9nIax4PykNfhGijV8ePa+XLw4oAvMen52c1accOs907NVyY9p6WStYDPFg0RLWETettRAq39v/2b61x9HEahq5O9/XXybto3NRUOhZ1iJWllhQdjisFcSrtqb/8jKyzL9j093+gxsAQJMWRN4uQQ5AaE+XDF5xvq/7Fb9u4SJaVZcqTQOxFQCF1KUVe/Czypb/NWXVSU8rD36ZO5Mf3yW/e02uRDSXYlStkpXZSZ2VtXESzepXV1q63IQ3Fh1ZNWJ15R7W1NsqpdtR9jrlAydnliayLRSlvLxCbRMP50OZ11rjgPBv92Z+zxqbNfcTUfOsNm/n+921a1uPc9xOhUSdOEmqfQWjjV19tQ3quSPmQIBEadZ7qlDM6byzc+Tu/Z3v+8I80LH7F2xGg46AtJnnoGekmellHRg21Xead10yog59w/UA/fVVdusnUBkZGPr+NlVVDXrTdrE0zBePpqG4ax2218ZtvtpErrlBjUTr6xxag2acet7mHH7C2rLKhkVU2cuEFPryc+c531ZGLeNfIyDjpeBs9/yJZbacfkByXSGhJhENzMxqLf9f2/P/+xJqPPGztt9WTqoCBbiNSb1c/aqONXHypNc4+0xonnuDbEyA09lxhgtbo/UQETpR6DgIM4kiKJ3Q1KfWuNsPigoY5IrTm5B6R25R1fCl/p3qnF6z53HM+idzeuceXnGl00bNzoPGxAlq/5CJb+zu/4xOPMaxwqMHv/r3fs6kvfNma98tCo7ULnovxMRu+6kqb+M3/yRrr1nkZUTLfUwbpRtmFREB6jhUjiRfHXT9m4fye0nTLbOcOa73yqs089ZTN3/0Daz33otXYdyXJpyqSrEYaNnzxRZ6H0euvlVxPdn8P47kMQivkxrU/Szkijyk+JmfnX3/Npn/vf7OZ27+uocpbIsRUXkgtpamnnOCSfxCaN3gNz1b9xqdt1U//tDWUJ1a2IlxKU3EoPDUciNbkudTN9jtv2cx999vkX/5lIoodu3RD+SvSQUmYL0W+tVNPsrp6++GzzrT68SLzLUf7NpeOOkrf2kId0J5Qvrwu5DwHKJzyhWWGQqLpaasN2VXrxtKTYtvRR7ki17w8CQzjZr8nsvjzvxBp3O1+1HGkNf7pX3JCG7nuGhHF+0RoOtCBeZnmZ30Fdvqf/slmfny/L/I44Tiy9qMOwbcInXG6Nc48y4ZPOdX1tMPkvDrHxriMDghOo6ggMdpMTCUkwATITOkW7Zy8kC8Xu+rAZJFRN3X0xAMojpZGVHv22NwP7vaVTts56Qt3dEytZ59xXaqdeKKtuvkWG5J/XcTqpO3I018cixJaPuRkDN56/AnvSSf/x2d8ddMVMQOs3jj1VJGYhHXBuTZ8+tlWO2Gr1Y7e5EMkek4L5qfgTM5nw4pBiMZNbhKxsaycFgCGWASYkkXDHqE337TWa69Z8xX1VE88kyb2n3pGgi8sJY9fvQtEtHGjrf7tf25jP/VTNnL22R47YJWTeYeZz3/Z5qRoQT4uIFX4+K0fsXX/z/+71VRRQ1Ii35PjZJYPt0BRJqUb4o3K3wuUSZXNJG1r+zabf+1VDRu+q2HDPdb80Y+9vOnZNOdTP+UkDZtvsolf+7Q6jIvc32VY5LUf0AnPkh/C4adzWShzL7zoWzRm/uHzNi9r1Dc+hyUnVz9TjV3DcjoNiNbrW4hSIJvRa6+2Mclk4pd/2Yfw1C0gzWTpqfFn+UqtKc0/Ylk3H3vUdv/1X9vsd77vK6t1lUO15XXOc6wwNo5jpfcca5x1htVpW7SnDRvTCpk6x45PAaR6SBjcjgIuAywKHbpDdZQz8lkoskPDKfwZLs2qTqb+QsR71w/8VgzjFKAgtJ+10Wuu8f2FWQwHHUgo1aPqVgm1d+3ytj75F5+xma/eZm2NYuiYwxbwedBxEYxGFmyHoENgS1PjhBM02lCnsAarTCSMkSGLzffj7UOWyCQfvQGuQ4bdkUKRhyRmtQW143mMjueeVz63u6x9JIYuy9ipichGzr3QaozkFNeBENriq5xe7anCa0p0+vbbXAlajz3mO+f9riesA0PIzZt9fmr8Zz9p47/w877lgD1MQ2vXyBSVSUvPztwHJKAekOwi8CSG4i/xZQ7/9C/d8xVKEaPPIbHit0E9wZYtNnyqKum8832/VG2jeu75pkzbF1x52c3vakSPxmZfmeOtYflIKVidSumkcjLsoYG0Xnu9z5/0Rs89V6R2q0hxzMtCL84CQuS15/ArHPnFsV2EeqHn17XGTu7n90QEQyxzb9pkwyed7CuJbfW6syJVH5ZK0DQK5E2D42z0sitkoZ0kuaQ6iry6nLqu95dn4ropcpp76EGb/pu/t9bTT6vnTGTFPeTLXNTYrR+ykWuvkiV0lCzgd32VkwaKxQvxsbrIZkxkM37OuWYTsm4Yeiqdjs/fYV2lWAPUQXh1RN5z995nk5/5S+u89qbV5mkNyfJg+FobHfFVr5EP3ihL8Nds/KZbbFQWdeO4462uDsmtfYZOyC/KzlEy14k7VyRO/V5hQaQLd774wynar/Ma9eX5J1CRH+W5I2u2+fyzNv/ww9Z6+VX5+2NF/EM2fN7ZNnyuSFck4ZtNDymSdYk0Sb71xus29UV1wBoSN2XV+y2Be6DDhvSjj7FRWY/jP//z0k0R75VX2PBpJ6mdbZJurlPbHu/qZsgSDG7bRYsryp6OnHKPjl001PP2tkKbAMzj1jdusvrJJ1r9hBM1zF/ve9VGzjlPMjzPRtT2/c0f4uqSGSCmpQHtWBT0tOwybmlox94shnUJqcIBjbx2+mk29iu/YKM/90lrXHaZT55T4MTOgV4myTA9clRADxFvL/4czgnp1MHzLjjCiiuG1EOOXna5hkIfV15+3mpbT3Al9Z5fygd8380jj1jzwYfcDIb03N+tiiT+cEB040KmnGyG9Z75gKGOoBjaEX+71l9GFIjl/5HTT1dD3JIs2wIkW5sVIbPsvmeXerY0TxJk10OSUvLL4+e8bfOPPGpzGjrNPfKgtXapRxectNWDNkQk9eO2WP3SC2301g/bql/9FRu+/FJriNiAv+OKVanwbJGhPez66hdt7qWXJEfqE9oS4Xla5CG5MlrPP2/zjz9qrW3brCVLP1ZTXRlkMTS2brXxT33SN/M21LZ4dSaVK6zhfrntG0kmAWRJG+yNEJJselDYIY0kkC1lZR6uaD+DsNi9g4lcnu05WfVvvuVkFivUlCsH+wdHP3SzTfzWb/rqrW/9UUeqmtbdwqL29pPaC/Lv19mloF+23b2lqtNcqhFvvabh5eo1NiyrceR4EdvG9W4QBXj8QKXZy8UA+L4UKTIbC+efeMIbYecdmYpCUmoJQWQxfLwydtklNv6hD/vYvLF+o9WLnpJ/IBFX4SfXj73980Lhi6L3O/Xinr9o4IRRSBFObf16H6aMfVRWBvM7R6OMSazJFJeg39lmbTYEP4WFIlITsCq8d1CgPC9BYPillcNe3vJ87j9SnuL5lIzIwC1PyXALQ3Xm+Hp570DGM+mdwg6vZrlV0ctrNEwn+OI5QCg2QqMA8z/6kc3f82MzdVJp2qAIK/OfSdqR66+2EYYm6kUbp53qc4f1C86XXBqehy7xazjcfusdm/nO92z+UVkvb7+paEi9uK84sXf8X9Ga/ZnmnM0984zvaxuantFQJA1ffMM11pnIc+SnbrGRK6+UJXGqhiBrZfmkDpJq8Tqi7ik39V+4MnFy3/9ldUkY7C5ckJB3iulU9/uRVoflT1gvW0JOYJy7kVfI5VAiyoQgeE2p9cpL1n6JvXp78PW8IBlfBV4zYSPqjEY/8mFftcU6Yu462kz+L7WBVF53mV4NBmUNtzDKIbwu0FGmnmR81Hi9T3kaGmrsVX9IuCflpWHR3CAcXOudd2z+vnt9D5evKhZmPokxZII8Rq6+yhqXXmF1Vp784V5R8gaDX8q4hCqhueCyBpeeyd2+0V/opJy1zRtt7LqrrXHNlbIeT1FUhQqQb537O5lvvmlzDzxkrZ3FkEs9ig9NyC+XyTcJNsti5N/n57r/UN7kIg89lxDlTRsYCz/PUyGHorwQh7+bym58Fh2UAbYwJMUUGccrKiiVZ4wGmhyIHCmAp4O/r4LumnQSmf2hCO2xxzUUT0rt8YCxYRs66QR/G6DB0Bfzf3RUndXlGn5ea20N8zps6i3yi+vs2GPzDz5mc2of8888qewFidE+kGVuBSlLTMRPT/vizfzTz3g5yGPkg2EkQ+nxT33KO0deiKdkCRFP8km+vbhB+OduYfTaIC7Jn7hDmulpny/qzsUmuCUTeS6O7wdSHePavn2q9cIL1t612+dAaSO0FVolIySme9DLsetvTPNkaj/d+ijKpIx7/jkmxxxdlHewizARLpzfU77SCIR0JEG32CXfpH3KWU9HPD+SO/dTmaLOdE9H7PzwXyqWFJqd6nOPPuoTkDmGGhLvmnEbufQSjYPPVS9KwyiaUHEI5ITwfsCFVR+RMl5pY5fwSsq4iEwVxoZbAWugJQXnvTJ2oge6VoIrYVKWngmtW/rDNUI/GGUaFIU3HA2DW5Mz1p5n3xALAsXnVOqpZ+Olcd83BAHHc8VxbygOWUZz6s0n/+mfrPX0s+k1opIS1rae6O8jjl10qc/nRfnqWzUEPled1vnnmK1fo7wkxXEZSZ619rzN3XOvzX3vbmtPy9qFpLpRR6NM8kTx/OXyN143k5UclluAbTHDGm4Pn3KyDfkwM4FQKWSqk/cbTGhT5j64Qhb5x3orhs2HGiGxzhtv+SjD92mWlV+ya1x6sU9f8N4zCALWH+9Y/F1YOqDM3++Vrge5vZ4hPsnAjQFkkVmz1Bn6kpDlcR9Yesge9vEMBdYQYeeu9D6dbyPoAXORT36wekKjT4zba6CpEUYvmO4lv34s5lf2D+T+vf400kpOf2z4hBN8Vaem4ZuNjVpLCuTWCpUwtSeZ62wB0bXzXZF/UYr7IYOY3/HKKuopqiv1eMVFCanSU1q968JxrX+ScLrnLqXTYV6JlUUpfYfNxAVoFJDYsIb0vp/PJ6B5JncgjilNmlPzlVes+cADNv/DezRMfMsbYAylffZecTHpPnb1NWl/HtZZSHV8PM3FfOxWq594AkLyZ4mbxsuRyfJ5Wbtz999vbeU/8ZQsQx372sWciJryqU2xSTsHMqiddrKGt+fakIiTV9WQT8gI9M5658Qcbl8gTLSWbp4yLBgPyqpDInKFyZ6NOn0/kJe5s11DzrffVmPFMlIW5ZnqVBJjz91urOcH/ZW2qS9+yaa+/GWb/NKXbPoLX7KZL37Zpr70ZZsuHPfifP/dV5XG19K50plUXLM/ksX+mtownykqIXQ1B9nuSZR7hMn9loZFVzkR35AshfmHH7KZr91unT1SfL6T5FCD2LDe6meeaas++hEbPpUd46knWD7oWF1Dpva2d2z2icd677AVqLFk3GjY6PXXa4h1ooipZc377rPmk09b81VZEC5OWnBS6hGVlZ3k/taDhtogCdxbuJ9RUaltc03FFP65AjC0Lc4JQ3A319k6Ictp/rFHfbf37He/q05EQ4lQJrn6xnVpW8y114lcTuRJuayjICv6wzlk4tTZ7Njsnd/3r2k07/5R95WlRDSKdVTDyA3rbPUv/4qN33STDbHBsmhvHqf+Do2PqnM40Zoaqvr7lXNzkhfEptTE6HyAYIhvw+kBvpTAyrNvivYYgmBlaUrJms9puHnXncV7kUX+kY/cyEdutpEP3GDDxx+n4El+PJ2GJcSVctQ7TykcKhB3Z9dOaz77rDUffcxf4k9kXeREea6fe5bq5JxkVR7yVc5E8Yht5sc/ttkf32ft119zq7jIkaCbWM8a2reef8Hm73/Q5hR27kc/tnm5uXt+ZPM/lkWNH1+/4OhxpTBxvVTnX9CQm/nxj/wdTfYWYonX122wxjFb0sqvK0XK36CO5GChaLYLoz07Z+2ZGRvCOnPTNsF7qlWrrXH8CdYZm5AI04rJcoPvd2OHP5t7ZVGCGDr4TnFVOp8uwdJgBZN3T2NTYRlYaml+ALHJ+TtM6XxQr6MAhRuMPosPRX/qKfVwn7fJP/szdSC3pVe71BCi52XYOaRGUr/gIl+t6qHITzf9Ik/EL4JsvyHr6bvfs7kf/NDmNTxECWlUYVk0RD7jH/+o1c47y1rrJ4qV1xRHN/d8RHPzJl/8Gb74wqxR9tpE8+23bPa2b1hLpMeE9SDL1b/Q8u52fxuiB+JQXUAO6zdbY9MWXYds428/SD3c+4FBeQDIb1A53w/wBk2sdJfBZ7lab7xj88+9mL5a8kTPsRCGn7vHnvB5Vb5PhuOc/aZLdXOq6/lHH00dnZ5vPf6UdZ5+1mrKW2P96tTOlB/ab95WDhUWqieHN3gsMhof8366jsbnDZA5HF6b4CsWYok0ODj0mV4qEKY7DZ/q6zam/V7hJ+evxGASF0vyPtkvMouNgQlS6lQbUh4pWbGS1eLLELKkpr91h019RSa93ORtX7Opb9zufjOyrqa/z7uud9nsD++26R/+UD3jD3T+Q5v5/l02/e1v+9cHpr4gAvvbv7Wpv/wrm/zrz9rU575ksz+414f4sT0iQXJdNW614473NxwaGzYpP1hi/GVCthfWLTOyrGtf1r/jDms+9IjPuTiZd+NU6daI7M8408ZuvsW3SvgbHH2A1JQKK6BjY9a46AJfOePzRmxqRY5QOehMTSnfL6qnlwXw4MNpBdUninvwIao6SDZ/8pkaXOTb41IavlWltKhEGFpX/HP0inHIsVCrTmJWjjKZHkqQnhMo6bEXVG3X/ZGdvNLcr+RGnljAYwWfTy+xcMAwv3BxnR/jnEWycO1dexZ1fBWGb+e1dm7Xcae/tcA+UN4CYLXaV1vfR+SaOxBuxWgokUMDrlSJkiwN/X1tWfuBaGhUdh3yLVlebvVI3/woB5GlwWCa9KacuJ6YOKYKam9/x+bu/5FN/t3f2+4//EPb9Ud/YHv++A9tz3//U9vz539me/7iL23qr//GJj/7tx5m6u//znb/wz+IvP7Opv5KfrLCdv/RH9nu//Z7tud//q+253+R++M/Ecl901ovaQgxj0zVOAsC9ca66SirnX6GvxzOznxy5s7FT0OWU1njX5svaWioNPWPn7fm8887iaQFDsrn3xax+glbfWvL2NXXWoNvUul+KEwefzh2mg9fJkI76STj43z+5ZEij05ezVkNW+71V4X45pYTl8sNYgzFTx1IQjyfLGNvT9QTw3JPM92L8vE3zgnz/kB5Uw8ROR6ENDA+9Ai5IZtu+/bzNK8ZSJ1wklM8451ZBvTCdYMa0r3y/aWD+uGg+NQuG1dcao3zzrG6CM1X7HXfjYFiLv1QosjJYDjrqxfu8EldlTbmDlyIypy/RL3tXbfivPHxTAqyjKDGqPy1dtN7pGFOVLzvhPY9MIWHrAcQ1ywM4MICoXGkJW/5rN1oI+ecbw3ieOU1az/0mDXve9ia9/zYWnf9yOY0xPOvv4qg5r52u8185Ws295Wv29ztt9n8t75lzTvvsdb9j1jrqWd8SBj5Y7MxipqGtsKQZMtc0uioDV9xoY1deYmsKg2do+cLMhFS/aRGjII1n9AQ4oc/sBlZki1foU73kEmbz07Lsh699iobvvE6axNnXcPKokm0yIOHDeCvsk6sseHTTrPxj37YaluPVQg6gfRMkpuu+RbXo4/Z9IMPWGv7jn4iwNJj/1G97p+KmdejUR+ueAyjqCdvb3n6CVHaA9a9A0WpM+xDnyX9PgHyYPXS20FIRXW2SD4XIhPkH+5AQdxD69ZZ/ayzbNXHf9qGzzyjuMP+wPcPIYkFMTQmy2ZchMYeJbfGssLzWwAsv7PtwXfbc3+fUb6PkHKxLD2poRDfhOLzzWp44bwxTGiI40PRRFyMNr1yvPITAbjdVlR2kDq/X8BL9yPXXq0e6XK3nnjHtP3uu75vr/3W25LNW9Z57XVrvyrCey05vhrKy86dtxVmx3bf1MtCQBqC9aq+m0ca7uYNvrl11Q03+rYKJp677y4qP7Giyz/AxlW+v+8Ttj/8sb+831bnk7Z/eJC0rH/u2T58HTnjLKvzWSfvoiHTFAT4QC8jFn9vUj3v+A03+Or20MY1SruQE9mV8zcInn3BCX3+xRfSIoTK4p2eZF7bsN4JGjLGUiRVT0OjAbZ0IL/+ZX+hKF/8A6UQhwzIbDGicGuynN9DhlTvpNaG0DA48vqizQjobWPriTZ83rmyqC+yxqUXWv1S1fWll9ioLGyObOvgXtddofuX97u4V/YPN3rFZTYiN3r5FTb6gRtshK8aK836ho3Ko4wJKt2ROlmOhxL7XOVkGNZ88Xmb/9E9Zvxa0xw2i0xHSdGVXBU9dqlMzOOOlxB7r+ksD2iIoh5/7tHHbfbLX/EfZ2F1LlCXVVI/4QQbY1VN5IQyNh9glfMJa77MhyDTVg6O/jrO2Wfb6M03ec9YHx6VtTLqX7wYOmqTlHba2KfHnIV/msbnMgr1kwz5lxMDbyVEVQ/xXX2/YNjACc9IuHxaafWEzPezbfxnftbGP/BBa5x6GrfJkcLlnQfXKU5frn/hRZv+x3+02R/80FdKuetzhORE487G1uNt7Kab/AsR/E5ADa1oNzVU4QdHGIczaSqy0bHT/VwM581Eaus3WPOl50XYIup33vXYoSZXLmUCcmf+rnHKCWlubnzCOwtWcvn1pqaGpazA+RDYmY7/GhEcd7R/FHDk1DPVgTY8PqJMf0AqeRrGdD0PKXjXtfn8i251tl9N73LmGD7rjPQC/amnpDcaDjlUz2ofc48/Jgv/aeuwIu9bN5JkaPf1tWtt5KILbFi6yZxngzc/zj7T368ekeNl/2Fd83GGxtnq0PjUO+fnnO1+nPc7ntvbv0a53f8s/z7eCO+JHrdVQhHRUkOqW6+lgmiBr6wfIux72waKJ4E1n3zK2m9vc2vCMyoiU/NN3zFiD9rmTdY45tjiueUBSKXz5pv+1YqZr95uHSkSQ0a3IiRlfpyhduF5NnqVrCy+c9Zp2cwDD9uchoFNvtmkf/QwTVlDKOTwWWf7d/X9iyH02Iqko3PejmicIRN7XFZHs2lNWWQQPpXI52+i10SjIY70j2t6Le6pgqljJzM1R9LjQ4oimrGPfMjGP/5JW/XBD5pt2ZQWNrB2vG5ovl4b/pyj2bbWc8/apMiMJXp+44HwlNkbkh7ipeDGBeemD/CJMPlZwdb27dZiw+u7OkL878h63LbNjCEjfvy8H9bTtsIC3bHDP7Pe2rbDWi++iA6l/BC/0ulgsUxP+15FPsszfKqIX0ToGzlFiv4RAHa5+zRAlEBHRCDr0b+lRVklC+4RdwIyc590+T7AfzdDZWw+/IjvDyyjLnLgB3l4TexQExrNiqIjpzZbSF5+2TdKD/HRhRREUH2zsi+SGv/AjTZ+8wdFZOeKkM5xEqJjHubzQWrPcT2icycyXl3kh0pKzsMN8OcVOZx/1umkk62xaaOsb8kgNTXlU/XXrSpv5N5GDhUWJzRXAA1TdqrxagjVekkNUA05ZQiJqhXTc4+NWp2VjTOwHpThYo/WTxpYF+yrmf3+9/23Djy/Airi7uQTbFREMXLe+dZQ/tsiu/kHH0pf23BCA0l96hPjqtQzPbwrGuWU86Ef3+PauNlq/ILNuKxUKSwT8kN82shn4aAdKlMyQ3YaJtDgaqp8JuXp3YfPPkM9nRoJPeF5ItlLL7Oxa6+ykeuvt9GLLkrfq2e+L+vpvHF7lIXSS9n5nYeZe++16X/4nLXU2E15SGRGOZQXBRw+/zwNOVKv3XzkUf8dhflHHrf5xx/x6+ZDj9n8Yzp/7DEp8aO6l/z5OAHy4QuzWCs+//fKK+o03k5EpRQonlt7WKiQlfz9SyIqG681QWrtes1avHny0kvGhzv5cgfPOubV6YzJGj7zdN8WxMcjuePv2XqAROEuBaVBevgdSjAt0HzxJcngEeu89IqnlvLkt91CgxR4if6QE5r/LUidn4R8+23fPMv2qmiTTiaNYY0qxmz0ksts+CINL9W+/bNX69b7se7H3rlfr+2dlx33FnJ8S42flhySjvj2HngjtQblp2j3jiQwz+Mhwj4stATe6qehzauHQoA1JhXIE5YCw5TJPf61STYX1lBohKlM94oBkXCF23dhuhaNMKjw6b4UiG7Kz5VWDOf8Ud0TmdEQJz/3RZu580631CJ9DyvFGjlXFtfPfML30mFJEG/zoQd9Y237xVcVMlVGTenwHTUa7ugHbyosh4YXJZVNJ4qvcZSGS/w24+aN3gE0t8uSmZ5U2KKhAY6rx31YhWU7csEFNn7LLTZ64/U2cuO1vmF29Ho5XY/dcF16y4Hf6yQPiYY9CpSJ2T3i5Z+/LiXCmhMR8X2xua99U2QGWUSyIg1d8BuKox+6xcYuv8zravpzn7fZL33Vmmy0vO8+fyezdd+D6gDus/n77vdNk/P36lwW1Rxh7n3AWvx4yb33u9XOsDJtL0GLSExtQnJ0yemajbTMvTbOOCs1fl68Hx2z1gvPy8Lg18He9I6kC//pvLqURBYGFrRIv4OV5uUk1kKOAi0sybXntzB6bZC1UiiUfynOQC9Mz6mGNeSkc2g+9LDNv/Ry746nraoX+WLtNNShH/ohJ3Lwg9c5lvXsnXdbZyptliZf1IP/qPf2nVY7XZYTX27hK790vkWeeZ7RA+2iV9ZwRZgSuBPoD6H0utHKOve/tNWIjxsKwH8nuEOHJcVe37DBGurVa8yFTKx1v1AUSICPys3+6Ee258//3GbpdZ1kDi1ygXqdZOAeL+1Ofv6fbF5k1n7+JWWUjb+puAiffVRDIjJMZXqYLqJmMqQlexzzYL2yg/BziLgaGhaOi5T4+a7Rj39MDUlDLhoOc1IAMvXNpRq+v/2WfznDjpZ1e9opMvllmZ0h8/1kme5Hb5GlMioypGGAfVQV737u3GVz3/qezX33+7ru//gmz9fGRRKy9MYuudBGrrrShs+9MP0mgHrp1rQsoyn18lPqoGakDHwdWI4NmsTtH6Fs6lwWub+3VxxxboNKKOnXuFh4yPI6P+PvG07/w9/b/AvpB16wavn6w/CFl/iQHfmETDl2Xn/DZv7hCzZ3113Wfll1t9eEO8SDI50lNeH3BK+/hobLXr69AYF7m89WnA81XNJ8PeOkk6x2zDFmso6QEv71ttoMCyzq0PjpuKl/+gdrsspd6CX60tMZ5Phe0V/ushS6Sb0PdbWohYZwvApVmf6LLBqGMaTpsILXrVudaIjF/FRnx3b/5rt/tHBilbX5HjkTyEXIRHTpwdQzdCNZMpw85BL7F9d40MuLKFjRm9NwiG/Az9z2dWs+/rh/2jnVZdGjK0/+W5c33uDfgeeTw3iTP17zwvJgfofwgD00HZUnH3LyQykp/zjCyalMburz8cG1skSYP+IOslHjsmYRmqB8O8x/mV10MCsLWDKrjeu5LUdZnSGpm+70oBE/R7xSA0w++seJGiUT83xllx8aYXhoGoK41aYArogikdrW42zs5hu9DD7fs2qV6pN5su3+OhOLGT6FIFkmizelAmklAZIfTvnSQrJvBkNlU/D0hK7YnL1rp7+qxZdT6/y2qGTenpyURfmof2ocWRA5thPn/AiuGNTn2GoKy0KE/yI3C7r883J77HpsKYpCWB7CgvCHE7wBRVkT8PJ9U+6nPLGa/9rrNveArFMNPXNQP0y1+IS7OiPfbJ6B2MvIUheK4eMSQcho+27JsiWJT2FRh9u2ua5Rd7RlqrBDh6kRFB8U9b1pI2qffCSUOXDlPcWU0g/rKp0vjt79JDu/1p/e0/j3wBWxh0wPFfYx5CQbSlyC66hRueLxmWhWVtTYaOSpMSkMCsQksSqel9jrWzaL0NgKoHsalvoqTFNNCUuFa5TEHdf9jiGIT+gXzoXAMa7lfNWNV7FkObTmZY3I5G699ZbNP/OMTX/5yyKz22z+7nt8DokldarOxYjZPbHGxn7ukzb+wQ8Uv0iOoiqEysNvefoCyPMv+DPeQlR+WzVmdVlzvOvI7wj4l11TyQuX/gGqjA/Y1Y4+ykbOOsvzBeG096hxcZN3HmX1sALL7382f3y/8ZuUEG39pK1WZzhLZ6DoIs7U9FBF/kXKDDpVLnUofI5n6h/VE2uIyLaQ9F4tzwCF1fBy5MLzbeJ/9xs2fPoZIpU1KYzImQ8s8hXi9IvkIse6mjbDZDne1XQyVD2n7SGKVcl7h4YMCtl5KgpX7OxJhObP6EKk1H5Xw59NmzQs32yNrRria+iJDJovv+C/C9Fip7rgREodq0y0pfYrr+ly3up8XUROxocSVzvoazNKrO+67LivOHX03xFQ/HzF2Lda6Lql+GlPbUjaw0naHGn/5J93It943YfgWPt4JafM6KRx+qkabp7un59ne4evDBeOdu+dVuZYRe6FQTfQB/JJ2nm+F3Iqv+LxTcfIf+MaDYlf06jkRekEn2NK9e5zk3yAgY8BPMfISc+uHvc3e3TLOzBfvPGyI1OJRnqd5987uW66g1zSZc8P+ed5OiTdS8+n9uojDU80pHdooDRIZSFQqcqjMuQFlvJN3/41m/zjP/Geilcf1Ec4EQDedeTXnRpHHWVDJ271fUr+m3tMaK+Rgq8a91/l8R/KLZQAoCgoiE+wy58j8yY0Dt6t9I/BseNY9xIRiFhFoC2l3+Hn7Le/a50XX/SXnVvP68hGVVbndqevOUT+eL52zGarXXihrf3n/9w/RVxbm97vpEduN4dsz1/9hU1//vPW/OYd7s/wifLzuwjjn/i4rf8P/963p1CGHpKcVAL/6w0HmYlsySu/uu2bbP/xc96b8mvydJ9dIuCoIXDjrNNs+LrrbPUtH/KFgg4LB93mmUDzAMlCSWi/+ZbNfPNbtvP//V99TstEnGlntuqsKPvwVZfb+MdutdW//mv+ulP6cRiVTb333OOP+hcYZn/4g/RVFQcNsFeWGBImCsVPZVYAn08V4qsizDdi0dCp+WtNqsMkn7bVTznDxj70U7b2//J/NF5cbu5412bvvcemPvOXNnvnD6V8aREF+OoYSqA2w69M8bUPJt3rIg6+Pe8fK+T7bHQ2waJCyDRAvossKpPKj84jSNcbl7URwMiiPj6uYd1Ga89M+/cA9/DL6d/8jj9HvITlk04j119lIx+40X/d3n9kpNseemnkKETZBWG66frfhUH+HSqUPyNyqq9f51/TmPzCF5TPB9zijfJ4ePYt0mY3b7b6VslOshzeepJ/L834Kbn4fPqoyI69mSEggTPiCgeiLQTcHwJTYM+TC1xtT3U51Jbublb9qTPjAw/UKe3pUGGJhIZTJmUR8V316a99yea+fofN812tgjS6jQYgFA2b+PFQPiM9dJScGh9C9U/tSsBYbj2lTA3NLQEKzD3/IRUNS3Tp3zqHOiVJfqoOknBrcfeU+a9Es/+r2KzakvP3M9Xz5D9pT1K80D1y6cU2+smP2/iNt/jGWHXVHob46aEm/xJC+6L/QCvoKrSGgmOf/IRt+Pf/L7d2/PcAPAQQeWVNERIC+LkE39Vw8NGHbfb2b9js975vrWeftyF+4V2iJ280Ah/GrVtnjZNP9P1mI9dd68Ni/xELyZJYoz4SIBxdK47pb3zTpr78JZv+7N+L6NVjyi/FqSOdgayh8f/p0zb28Y/a2OVXkGAvDlUCWzLmHn/S5mSdtl5nywn3FIbee0jl97khdQa6VLPlpuDdnKdBPC0d05aUjs09IitXFmPHfxWMApLvpup/tQ1fepmt+Z3fsuFL0jfX5pU2+Z792u3ptyRlbWM5sT8tb1NOwps3Wu34Y9zSq62VkjCtQVtxSzDIKnvIEflN/t15MMjYG12/VD0OPcLmX1abeYWHd4HnH3nYdv/+H9nMN9TRyaLxb+IpLgiNb+RDtsxH8k3A/QXp753vheHZ1kN1fqnptJPVSXzEP5bJ+8MzX/qSTw35O5uE9fpJpaeuWXGG2PwTUXQUayZkaLCaPOY/b+fDe+kg9RnwdhTXbrmm/EbcflT7pUWwXYl2QssnvY46zpFrrvENuCxu9RsCBx/7ILRAqKua8ORu67z6qr+zOPPd73vD9YliRYNLq369CqJx+iQx1+pJqXD/AobQ/ZSznvN2L/94zj85osZKg/VrhEQaxcR0CxNXxOaT0xJm9Br8niNx0MNH0bynH1MvdfY5Nv5RWSm/9c+kIBt86OgKSxhUUeby5F/+lU1/7os2S0/slZbus4LJV1TX/vv/R0FoPAFSOvkL7dgwoJs+8puctPk335R1+9+dLFvPyMLFPC/iB2mYKDGdsNVGr1Uj+LVfspHTzvR3LOkEXNmKVAFvBDAc2vlf/xeb+eJXNKyQdVWkydDNFVMWRuPUk23Nv/23PneWvt1OwyNUrsqqWzqGWVlJiiPdF5yMEvJG7IDwCtCY/agGP/NPn7Opr2nI/6N702eG/E56vnbccTZy4zU28euftpErr/Y5x1lZPzPfENn/9d9ZUx2STc4oNmST2gV5C6Qhaer43Jrw9lGkLRftp4ss/4D74RNl4Wm30PWoy1hhhk87xVZ9+pd9VZvObP7Jp2zP7/2BzX71dp8TDELjmUSqyQ1C7t8nP1C070Ho1oGjKGNWHl5B43daV/+f/s9WXzVhfOJo8u8+66ue808/ld5AkX6AlN+QJ1WXTvjrspRjisjLIWVKT2VyV75dxzz/aXTh9VO09ZTXIrysNe/uRZAdjTwm/ve/Zat+9ZdsePOxydg5hFjStg2Vojgqk5ARP0bKtgMNifixjvYU37jnMyYQGuDrVQxTVGj5RCOB5f1ldybEETQvvbOgEJPjTB5zb66VNlwyp6OhpfHqDEMYVuJY1tc9Jo4hy9RAIBT9dVJBlCkXwMlsi5SaH8b9+Z+3sZtvSnu6mNSnoXljk6JRGart+UcfsvknnvShq9+Tt8dHb3jWmTamoQVL875tQzeVsqdNKK9o5Sc1YJXPa5lzyQCzf1xy27zJ91n5HjEpe/q+XArDc/xUP7JkFbT5xDOeAsN4tjAQjLwQmvjb77xjs/c/4ErWevRJqykukuzmh97xrLNs4tO/6q841ZW2Cu5Pu6KnZIv4JAMaG5+8ZqjFLwExRGChIhwWNkMTjsX9uqwuNh2zwOB+HDWEYe6l+fCDnidIzlsQcpF/e/sOaxy/1YaP5hfB1snSUvk2bdT1UbK4d/oHLqnfZA0WSuKQfPXXJaC6onX51yYU54KOedbM0SHS9miD/rpZ1z+1SeJjUWaY7/z9yi+nX3Kiraj9Ne+/3+afYxOrnlPWXKmRnxdOacliJk9UvSs+bYEj7ZR8Yt1wLufPFPd8jlfOO4jCla89esI3uac0NdQe++ANNnbrrTZy6unpVbKJcY06TlQ901mLTN6RHDWi8d8hJTnpAtJjHhrp+ao0Hb8y7MND10fm+NpWQy6uj4VOuowUD3lTmCR3ZMZ1Kt+Q8paMG91TXtmmM3y9OmaG4zImePPF28AhxJIIDTmmd7KUSeayNIxh24NPfE+sVUOWMGH4okfwyuZBKpsCyMHuiM2hCIOIJAkXgD+Dn4TpFaZ42nI+YcqRMbrCudM5jxIn6aS8Aa5UVSQpi6wuE5fNqsNXX+lENnbtddY4hW/lS1E9UHrO03ZBt3xo4aucz72AZ4pPibF/aljkAKGxYkR5/XZRJn8VLMrnoLGTF9LRkcakRsYGRDbgMhnP8KojC4ue1Oe89Bcp+TaJSZEa2zp4M0My4Tcy/UOMWFhKi4lyXh2a+cpXfY6OfW+SqitYoHHKif6u6cTPfMo/5wLhgFQ//ieBo+dT/7GS5VgEsoY86MBUXl+51tEt5wbWkfyQgx91b1jhRIj+gcNVY16G1iuv+JSEr/AWQBnak3usvlrEt3aNW4/Mk/kPw2CJikyYtB6S8rjS0LF5W9F5F2Q0WQxM5JP9gLcJOZ7I4aRBu+MfzxTX4SdtdX/Sapx+io1efZWN/tSHVF8a8isBdJTfn2BoZ+pYi6dS/XLUFWc+yc4N4vY7Cam995DfWwj9ZfFIiVadyqjPUY9+5Bb/ebqh9eqoqBPal4aR/Kg30yss/PiKskYTvi+NuCDVIvWkP7RTbvhNDwNpkd8ak/qum5SV51KYkFM4/wCpTlNcScuZS2SkwbzziDrT2pZjUrLogg6HCosSWhoOkbwKVZylvyqEGu6QGuDw2eemeTIN39r+y9cqvIKgAJ3hYshYFCKUG6SGkBop5zEPksLgyR1EU8CHrUhNRKfzzlBSshoOxWObA0Jk1z4bV4/abPXTT7PRWz+iYebHbOKmn5JQN/snrImrG72zJxWmi3YzfZWUDaN8bsdD0avpLxYa76t94AYpu8gHpUcuZEn3aRSETOecpCtPpwB2IFsPeE1s+Nzz/KVt3rtku0tNlhPPya5RYjqhcYnwWhret7erp5VVhIVV47NBpC0iZEV2+jN/Ze033vA5RS+OJ6R0R2reg4//1C3WEKHXR2VFucx1jzxTZs8jTwHyGucCgRxFHXnMnNOzJx9fxfRTNWI/AQrp2yvkoebjHwXQMLJO764HidV/PHlGw0oRFy9Jd9hvNy4rbfNRPg9VP+5YyWbKrQusdG8SECtHyZCFB883h5SZLsiHu+IapBCqM89vKnM85YsWwRwQs6zOkRuvs7GfulkW+RlqL7yfrOdE3vz8Hx1dc3JXskw8YxETZeM8rrnVf567MvL8AkJEWUDc903aR8maveEqG7vpg2pH56ZOhHv8Qx9YTT75JGuce5bVNq6XbqjszDkTH2JkUU4dLHETnzKk/8imSEzwPHJZHD3LtBedRF5Se0p5TO03hUWm6fW682zNL/6C1U4+0fcbcr8/lYOPfVhoZL2bfbnISvJDKP7DKOvXW/3UU2z4ykvTj8GeqYZw1Bb1uBt9Mpfldit6cKLxn9mXcCicNwKEWQgn4CkgALeEqChVAOnRC4mUUBpbKyU9aoNvvWBf1cglF9n4LR+w8Y993EY/9Smb+NjH5HeJ/94Be8JSOqlSUM6eZUfZdK7eZu7xJ3xekA2dpFOj55My+dDobA05b7jee0O2MXjWebLIehyTmNJFeCVQmfhIZlLi+vHH+mdWGiefbO1VbKIljMz9IRqcwmC0SckgK14xYtjnH2TccrTNPf20zd19t81977siB/W+ZEcNl8btr7OccKKN/9zPyiq91l9xIdUkYogslTtNisuF7OVfnKXwfqIcF3OdLe5znbWF9FfyQX7pATmRu5RmmK077Fl8913rzEyqLAqnNsDEM5aCWxQbZFGo/dSKXwvjPl9q4Ed36lIIZO7D7bWr3cL1kQDtAIKj7bmTvLAUUSTSkHNC5ZywXlcc5UcYOXLML9/7PkmIjG0hxx9njWuvtAl1gCNXXO517qKhuCK09h5+lVwWtTohZuLgAk+HnKv4vqDl8kkYRFyLwWUr123zPO/lUf4gJeqX/ZBnnm6rf/VXbeS8C5RHyU4p9qWkC8oNOdePlm6cw6+yXW0jl1/hBMjQvrFJ8mbrDFMJo4pbaTihF86r3GWmeHSeiD/J1ePGYblz7XnDWpcs+Ty96mlM6a366K02evHF/oEFD9/9d+ggaxK7cTDyCetUq/IrcuOmqATO4+6Hqc1QaftOa7IfTJZFZ8e7ZsVXL21qj7WmNfSg12UYxdc0UVQ9Y/NKx/fiyAJgOCkQZ0canSZ/1QNJaHybzedvVAkdWWP8ZqV/ZJA9VRoa8JoMK6s1KbyvqGBuA/KJIKOkNJTC8oDEumVSGWb4suz9D1jr4UdVCekBtiqYzPjhSy+2iU9+QkSH8rCXJ8XDgVlDQuOTC7SI2tG935WZhl+7d/sPmLSe0jD35Zet846Uf0qyYWuKhgndbQxqJKPXXOtzYbxmM/f0k/560tz37vJ8g5jw9a0zW7b4r9g3zj5DwzjJrKgvQGjloEtUIY/kp3tFPAEvm/LMN9L86xjyIUz01dBDakbIooiT+lTdTn/rO9a89z5rseMf0JO7ctS9rugEh8+/KA2JFUXkETR38SMgb1nn+Zes+cbrPmfoL8W7fKY1LE1txldSSd+nJYo8ZdcxN+ZzQ+SZIZIce+xYoKIdMRVQP1aEdu45NnzxBeoET0wK61Ihzpqs9mdt7snHrfXY075ViBV232oia5kvmlBeXBtrlOGy0vb0U5a8bMiNyyArWNHlIbnUnUzwY3Vf7VXXvioIYUgPIFW2qtTUeU/89E97O+c94qizXn0AL6nOU7mZL/Qfptn2jqz+V/x3NtrS1RYjhEkRtIbRbZ+zVlnYl8g7teglslLbcdvc5aV8QXI6950B6tzJm+soeadz0ZFPFDXUKQzzJgpkJ6Q88k/hDhEWJTSVxv+mIEUmqAgO/peCxuNqGIUv6PoXDZvtBP69MBYAEOxuEZ9Md75VhjkMuSFA77klRK9kF9Cokxcvfdc1lKyt3WjGEj4TzxJUnTmlkXElj6CjSgchlSXlMASqXNLoimyj4K1JETBfWt3DvJbyir8aklsDakz1DZtT2EIOEa93aYVXnocIBTwuPyueERIpyp+bkhOvq9hcIvvW7Jx0cs7lWq+JvFdr+MMEusrvCzGTk0l+BaF5VMx7aCg3PLHeOmt4WTht+ejlt4dyfqIppCyRapE3/5sQnVw0TpD+7t1Iia21Z6d1WD1VnasXcAJxeaIEymfqlFSf1KGQ51N077Hi02YiWvJxJZuesyaEJtdmstrbTBxVn7Q58gmRaXjLwksiGSa+VdZiXtaHRrQtrN6Nm6y+abPP5bFdSBlJdaLEFTKdA8U7pLbcnp1U+91tnXdFurtUxt2qDzZOz0ylfZJKj7bu6UEKxEfZlCYywDJ0S5IRQDEvnUYfI/6dM46dEXXa1B9HyYr5Sj7DzmfvmVOtMe3iZnySdaIdqQ1/uu2xqNty/dDu2RQrmbKhGkPDF6imVCZW5DE++ICryK2GbBUX8kr1p7wHwTJ8VR59bndEowPqEUtNchwan1B4WonKXySbsHdbOVg45IQWe6WIwxsbcSFEiE2V7vMp3ghTuBzeAIpGQK/lvReViumNhST/ZOanSiV8fww5UllSDkOgyiV5K7LtWz1QAOWL3fcB4sUI8N6SnqjwS0jx9uJUMYojiFAA/3Qdz1DkXgjIoquUIZdCJp6el5/hKPlUHJJZ9weHM7hclFdvfJ7POPajnJ+I52ASmu8JpEOjs+KZIh9OJjoPxcjrMJAmolP8Xk/kDxckgbzCH8gvIfnFc7kcnegE/KhTX62WnHwaA/KQMnpZyJuHRDqkVVyQJ8WF1eOyhwwgL5XTV0z9Xqq7FLz7oIPyhRw8fSzWwt+d8uKygZZ0TOfKj47uijbAMDnFl44plZ68evWR/AYRmpeMo1zIiDK50VG0Q/Ifsts77ynPEqLnzc/Jnx+LUQy3kZ/HECjl5SBiH4RWoUKFCisHh44qK1SoUOF9RkVoFSpUOGxQEVqFChUOG1SEVqFChcMGFaFVqFDhsEFFaBUqVDhsUBFahQoVDhtUhFahQoXDBhWhVahQ4bBBRWgVKlQ4KOClo3A/KVSEVqFChcMGSya0Qew7yK9ChQoVflJY0svpSyEsf9O+QoUKFX6CqIacFSpUOGzwnggtvodUWWcVKlRYDlh0yJnfWsqws0KFChXKyA2eQ2387JPQ5ubm3DX5fnuBPFMV0VWoUAHAC2U+wG9sbMxG+HlCnf9ECQ0Se+GFF+zVl1+xt956y/3KGaoIrUKFCiC4ITiBz+MPDw/bWWedZaeeeqqf+2fEDyEWJbTZ2Vn7+te/bnfeeac98MADfWQ26LFDzb4VKlRYnoAPckLjvNFo2MTEhP3CL/yC3XrrrTY+Pp5+A+QQYlFCY6h5xx132N13320PPfSQZxIXj+TnoHxdoUKFwxvoPBik9/wsH4T2sz/7s/ahD33Ih54/UUJjyPnkk0/as88+a6/wQ7dF5hdCRWgVKlQIHoC8RkdH7eKLL7Zz+YFjfllrHxzyXrEooQWWQlKHOqMVKlRYfliIG35SfFBtrK1QocJhgyVZaBUqVKiwElBZaBUqVDhsUBFahQoVDhtUhFahQoXDBhWhVahQ4bBBRWgVKlQ4bFARWoUKFQ4bVIRWoUKFwwYVoVWoUOGwQUVoFSpUOGxQvSlwCJCLdH/eaRv03IHGBd7Ls+8F5XT7r3vnPQzuV39S+V8K8rzlWCyfC5VnOZdzpaGy0CpUqHDY4Iiw0Mo9INdTU1P+vbfFik9YPoHCh+pwfN8JF1ioNy2nF8Cfj2bmnzQnfhwfvyONQDzXbrc9/PT0tF8HFsv3QuDzLfGRPVwg4iIN0iJNQBg+nYzL85Yjz0er1fLn5+fn/TzK0J/XFHfINsl0uCvfhWS6kD8gLdIsy5U4V61a5c8u9HyetzxMxLlnzx6bnJx02eAHkCPf+Vq9erXLk3zn8ox4iBtZUuchk32BZ/vllcqS112FhXFYE9qgotFgaGQvvvii7dixo6sAeSMMRENCKWjANKi8Ae9P4yLejpJ44403bPv27Ta1Z9LTJC6+GXX88cfb2rVrPWzkBZA/wr/88stdogHlsoUi5OUol2nNmjW2detW/9BeTlDESxi+effuu++64uFHvtavX2+bNm3y8oM8byDPB0r/zjvv2M6dO12JFwPxIFvSQL7h8Au55mmV0w2QPmlRl+Qd8iEscqW8J5xwQl+cZeT5D1D2mZkZj5NP0L/00kv25ptvuh/xQGQnnniinXTSSXbssce6bPJv5kdeiZtn+Hz9rl27PJ95eouVCXCfc+KmbVB31NtCz1WQzCSwvWv0MMGgotEYIIk//dM/tR//+Me2e/fu4k5C/gyNl/AcabSbN292Bbnsssv8G+kbNmwoQu4bpDk9O2N/93d/Z/fee6+9+842j5sGilL/xm/8hl1++eV+njdY8kc+P/OZz3StJ/IYYSK/XJf9y2H4yN6v/MqvuBKilAEUDRL667/+a08rLAnCUN5PfOITdsEFF3TlkSPiBpDut771Lf+68euvv174JuT5CXAdhA5xQhJXX321f4OetPPw5WcDyAPC4VPxjz76qBMPYZHr6aefbp/61KeceIh/EPL8ExeWFPnnk/McgySREXKJPNOxrVu3zo4++mi79NJL7cILL+x+Nz/yStzI4Rvf+IbH9dprr/WlN6hMcT+Pgw6F+Kk7SHrQcxUSjjhCA5DLf/yP/9G+/s1veC8MBoXtNpz2kPeS69evtWOOOcaJB1KjIaN4NOLAQo0NpXjz7bfsd3/3d+273/2u99gA5RhpDNu/+lf/yj9TfNxxx/XFgXWGQvyX//JfXKnI+2LoLNDWmYu/6qqr7F//639tJ598cp+Cb9u2zb9M/Md//Md21w/udsUGkDjl/Z3f/hd20003uTLlKJeVOD772c/a97//fXv++ef9vuenU1hcuOKZXN6Qz4TkSFrXXX+NXXv1NS5jZB6WVZ5W/iwWEGRB3h99/DF7++23PSxyPeOMM+yXfumXPL5TTjnFw3uesufz/EDqfJ35O9/5jv3whz+0p556ymWOOCIfagzdToV6x3KC7CHim2++2Y466ii3NAFhkMPf/M3fuEyeefZ597ehnqUNBq6TZKADuu666+zf/Jt/451oLosK/Rhshx/moKHRKKNh4mgkNFqUi4aKQynC0XO/9dY79vDDD9s//uM/2he/+EV77rnnnKhyEFeOiJ9wDHOxIPbsntINiV6uLWNoZnbeXnjpRR/yxTOByBf5yfPGea1Rt6F6zUkjHOHrNYVpjCZXhMdRjrIykBakft999zkZBJmRN8gCqwKHpbJQ2XL/rp+SkXQ9vcZwzUZGyXtd+WZeruGOc1y73XQygRC//OUv22233eaEn8855WnkYI4LK+iZZ55xa1al97y3mh3vDLC0GAbH8wvFQ7kZGpI2HciDDz/kFjW/UkRex8dHRfBpygGLEvk31bkgF35z42tf+5o98sgjnmbIIFC2bGtDjW4dNerMT+YuzdeGW6zuKuyN+n8QivMjBjQ2hkbPqfekBwYMJy+66CI7//zz7bzzzrMzzzzTTjvtNJ+32LRxkysXQ75Wq+nnPIdlw3165V4P3uv1A6THcOzb6vkZFm3fnqzCHOOrxpTORk+b5yMO0oJMARYHw7Gzzz7b3XHHH+/KRb6iHBsVx+mnneE9egpXhD/rbB+2ED9WBUoCiJ95IhSSPE5NT6W0YSQREoq+5agtPuxhSJiXMwfPII/HHnvMh4Dbd2x3P+TDUBcL5vzzkmxx5IkhGkM2iGFqatrTajbnpejDXh/kM7cKQyY5nnjiCR8m33///TY7Jxl4vhMITtxnSm4MnSGIchxxDaES15e+9CUnyDnJHNmS1+slS6wvZIrlyFCW58oLS6SFhZ1b2cQL0SGTd9/d7n7MlyITLHyO50gWUa/nnJPqNtw555zjYXC0yZirqzAYRyShoThdQpuZV4NUIztuq11/w3X+gw40YsgMd8pJJ0uRT1DvzDAi9fqQANYL5wxltmzZ0jcnFQ0uGjphGb589WtfdWtnThYZDZNeF6RwQyKjDT58QfHiHuCaoQYEQJ5QKNwGkRcKhQWyexeW4pAdc+zRiuN8+/BHPmSnn9ELe/ppp/vzDOtYFIj4sTAgWawSLLWWTEbITnah7iZCGxsdc6JELjxXtjgCQWhYotsVF2FI+5JLLrEbb7zRzjj9jK5cyQtDX4gG+ezes8v2TO528h4ZHvH0orMIRJpxJG8/+tGP7J577nFSbkuO9XqyagCdD/I59ZRTnUQgxzIhR1xYzhDPt7/9bdu1Z7eTGcR0/fXX2wdu/IB3BnQozMfhTxrEzXPNZltpsZo5pzCne7mCPJFpmdDOOPM0u+zyS+3qa64SkZ0puZwumZwqWWX1VbiQFZ0JJF9ZaovjsCY0Kj5cjiC055/DQks97Kkipg9/6EN22aWX2XnqDU85+RRXBBoxioziEc8TTz1pTSnKjIhwcmqPbZGFsWnzJjth6wkedzkt4ob4GMLQ+zP0bGjotW7dWqtruMUESrMp629+xtbK72z10BOrJpx0AAoYk/OxsoZDacbHxm2byOxFDVe3bXvXw0O+V1x2uX3yE59UGU62k0XIJys8z2INoagoRZAtw2YWKe666y638hrDDbeMahpqISe3TCUj/K655hpX5IWsNMjRCe3ll7pzk1gYV1xxhVs4JykPkBSO/FAGLBNWR7fp2VdffbVLoEy4cw8iWqgOIT/qEUIjvZqG36NjIyKu1U5m3KdMx6jcdDqkm3cUIOKFhCGesPTWr9uojuFCu/XWj9i1KjcEiwyYe6RTID7kwJAWq5JoOGJJ0cnFT7blhLZjO3XUsQsVL3HeeMMN3tFEfUbdxnXUN/muyGxpGNwyjwBEw4hjKPggEIaJWYjtyiuv7K5u8gwNNea+FgJWGeEYokAQKAWWINYYjRagfFg4jz/+eHfB4EAQ5VhKw4cUmATHeoyhExbRBz/4QSdy8kk8kDDzS4QtrwqXQXgUmSOONHCLyRflZ24K8AyKG8S7ECAq5AoJIjfSgHCwam655RYngQBhIG5kvFA+8nwDSJb4scAYNpafow1Qf/yI7q/+6q+6YxWSNkJZgvQXK3eFg48jhtBCwaLBJvQXf7HGjpWEtcA8Wyg6QNFp9KG0eRz4oUQoE6tdzLFwf+P6DXbJRRe7owdm1YuwWHKs2KGgEXZwvntYKM9gsWdi2AzR4riGQI7ZcrRdc9XVdv6559mxRx8jCQ15GSgn1kgsDiyUbsiByXmfoBcifO5CNkzqE2dOGqwSQvT5MD4H4SBZFgKQPR0FIO8XnHe+XXfNtXbcMcdafUi5V5TMiSF/0iDNQTIlTYakDBUhIwiePYNYf9/85je7q56RHlMGWM2s/n74wx92xzmWFWS8kOxBlB+Zt1psuJ1XfbMlp+n+cS+OIbOQT4WFccRaaN6o5FpqNGp9kkSvsdAYBzUgLAAmZjkOFeEZUkBEQUA5aIz09Ew2o3zEi7LQu0OMWGkMT6LxExekgSJBNiDyUY677Ed+3JF3Recue7asYCg2luArr71qr7/5hocfHR/zYSn5Ys4IsoXkWK3cpuHSnXffZW+89WZfujlQwJBD7pADBDGjoRyO1UPKx1zVa2+8bo8/+YQ99+wLvuJLesiHeTcWIgaBOHfs2mkPP/qIvfVOb2UWEiTvyJZyQDoAMn7+xRe8nFMz0315C9BJ8QxbVSC1IHGmCf7b7/2u/ff/8ad229dv9zTZfkM8Exrann/hBb6Fh/xisTEcjTk8EHJHhjjk3FRBkcPk9JQTc+4gy7If1miUscLiOLIXBZ57vjvUOu74Y+2Siy/xBrmQZUAjZ36FiWiGMTyH0qBIzL3RkFHIaMSQGVshmHB/krk3KTvKyhwKe86Yl9kpUmGVLsgARWc+jzka7i8GiJRh4DPPPuNWDkApGXahYLWMxMqExrPM7dx5111uoZE+5bhEhMBqHuXAomGbSlOERN5QNp9P3HqCWyFlECfk/RJzaNt3ut/MbBq6Pfjgg76/i0l3ZP+tO75l37zjDr8mH6z8kuZFF19oH7jxRp+vo+PArwzy8bQ6CLZ4UA+zkhn1cMMNN/h8HdMDWGRYZpSBso3LAkOmzEVtLKYMQMiFdCgjJL9bRLtr1+6C9JIlSTzIiTlC6p+5tqeffjrNFSoc8qD+y3LuzqG9/LLLB5B/FjGw/r79rW/bHcjim3f48Q7JBIuQYzjaBLKgXcZQtsJgHDHSiR4ZFyg3vkAeJgeNfnx0zDfCxnCm3WzZ/OycN1IsERDpMN/EIgI9+vRU2laBUjF0xSLYuHmTKx+rWFgGrfm2Te2ZdmUMklkoLwG/35YFpsNiGzTzeDhHQVnd9OGt0mV4yLxTTGhD7BAcBMmc0Nxs0955+13PF0RBHMgvdzkivW3vbPd5wVBUHITG9Xe+/T37wd332Csvv+akASmQJvJAgSEI4ik7SIItJkzkI2PCQf6sPpLvPB6sLSwjygupMmQkLeLJASFSF6zGsqhy2qkn2+qJNBcGobCSzNTBA/c/ZHd+/24R8nf87QS2u9BhQU5Y1nRiC6LYe/j2W9tc9mywTgQP0X/Xjz33Lb+HgzghWtpDhcVxRBBaufEGBvmX/XKFpXFDahy5JmxYVlh65QaHErDpMt+wCpkx9wJpsN+KYRX7kSC4GAJDaChPEGSgTBo5yMtC5QxEOcgLpIBScYyyQWaQAOcQCgTB4gDngPxgEaJgxJGnF+kTJpdDqz3vhMBcGeTDO6wzU9PuNz83o2HmvDLWdrlCRMgFcinHEyANiAMLB6uU4djY2CqR8YlOZqyOUh6Gy+Q9hn87d+y2Bx942BdwgnRyeXJOXbAg8rGPfcyJjfhigj8ceaVMO7Zvsycff8Ju++rX7M///M/9tTEsMbfYhFw2xE1nE36SkpeNMtJ2Yh4NNz/PK1bpRXbu4QbJocJgHJH2a97YcnjDyxp5GTwXLhDPlJ/DCoDImOSnd0VhUVQUDUILYFnwShJDIVcYAQvI93JpiILCHmxglRE/5ATRuOUpxYXAsFIAeYFk2XYBSQSwjCDcGKqXUZZDLKawnYF5OeaZOGfTKHusSNOtUykwVtT3vvc9fxMDCw45DAJkxpwk6ZNPJvPJJ4QUMuScdCFj5A4xUG6GqLGIUwZ5x6Jju8jHP/5x+53f+R1/x/anf/qnvdOh3kgLeeVgngtZfv7zn/dOAms9UG4zpEGdMy3AJl1WzXNHWyj70WaQUVm2FfbGEUloZdBQcpcjV1rOISqUISZ4efUIJcC6CGUCWA+xrQCLgAl77mOZMBF+7/332X1yrJyxKZYJ8Uh75+5dXVIrK0cZ5TzH0LM8/MzDEDekgIJDmNzDkoFQsAyZH8KVtzoQDpImX5AC5eJeOV+EC3+I+sLzL7BbP/wR+9itH7WPfvSjduutt3aPrA5efeVVvleuI7m+9srrvjDCfBvp5IQO6SG/l15Jw00nJQ3hSB3rluEwz5J3CI+FjMZImtfkWWRJGMrO9SCQdwgH6+7aa6+1n7r5FvvoR271vH/kQx+2W2662VdRIWWG48SNjLDGGdI+9czT9va2d6zV6SfMXP5YfpdefInHhxxyF7LJz0mLTiVvXxUG47BeFCgrWgB/5iief/6FrkIff/xxdukll3ojLS8KRGNEgSEqNqG+rKEL8bDcf+YZZ9oHPvABJ7XovSEqJvt/9OMfueLRGHmHT4M7Ecob9ugjj9lDDz5sjz32qD373DP2/AvP+UbdtpiN8KvUI7Nh9xhZTBtkKQ1Cd1FAyku+yGe+KMB1OBDyIF84nmWIW68lQp7VEPAFyQSrksUA5r4g5FfkpibTMG1OQ6JV46vcWsGCy2UFQfrGWpFGvN514YUX2M033eT7tbByyBeO1Ugcfig4k+/PiAzm51kYmfZhZeyQR8aUAauQId1tt9/mxJVIKe1bA6+8nCbtyT/HZ5971mVEvc3PpZf62dS8XuTASmgMRwGywSF7jqSHVcS+PIbivBLHMzisQRZ3SJ/OIQ0bE2FSX1i5lKlRb3gnERtrkQlxX3rpJXbLzTf70BZZsNBC/As5LE1kUBHavnFESigabCg6yBvzQsA6CMvErQMBIqCxMWTDUgPci71nAfzoycMCglDYoc9L4VxDBmE1kAeuWU1j6wAKs78YVI5QOiwUFCzkgD/zW5AweQpHvmKeLeKjHJAn+SaPZUS4kK8TuRykEwoZ/hAKcmPoiVKzYMIcGuVFxliD+fwjecQKQiYhK8CQj3k9iCzyTv5YcQ0rNED9US+UKaxP0oPAv/CFL/hcGJ+WYvhIOpAoIL/klaEsRMtcG9YThIRfAAJbysvwFQ4NjljKp4HmhFZGKCSORokC0VgZUrB/KhoqwxMaNPM0xIlyoGCQRrxBEApcbwzZ9Mykbd+xzd7d/o67He9ud9eSZRJKT3i+yPHkE0+7hZS/ORB5wi0F5DPyimKjpMyDccSfeGoycBgSk2/IKhxKD4lAKOSdCXGeYQ8Yn+qBHCD5MmK4m+cxyhV+Lg+VF1LzFV/JETLDr9PBGmt2vxYbZUD+EJoTRlvxaLjp1pnytWdyl9/HIgsXeY8yEg5Zvvr6a/bcC8935UoY6usHP/iBr1zyxY3vfv979uTTT3lZA3RYkBrWGZYjw9KYA0yqVHMZx1C8jEF+IJdLIPzK/hUWx2FNaIs1lFCwQH4eChQO0JujwPT+KAvgGbY64CI+GjQKF6SBcrPFA8Jjghq3fu06W7cmHcMPt2ps3MMSj8+1vfZad75qX8jzCvLyBCAHrBPiRVHFG04IYyOj3TxFXpizwfm5/Cc0zFTOuvEwzCUeSKGcLi6XL/fDygpEfnF0FnQEOIbAxMaRZ7hPPIRB7lhhkC3Af2xccl29pi/v3TLID4cFHdYzaWC1YX1i/QHiIU6sPOoXa41hIhYysicPIM9zlDHmTiMM9Y2cyqTevR/XOrjL4sSFnMr+uauwMI64jbU0KBoNe4Cefe55703B0cdssXPOTnMjWA0MNSAVenkIin1GPPMjDRXxo2FBUmyQveLyy33yG6AkWBG8KoPCkxZzKldceaV9+tOf9k2r1117rX/FgUnn3NHrQxYzIsXZmbSKuGHDev+sENYAeQ+FAChhzKHF8K88hxbgnPxQBuaX3i1ImfmgG2+40X7mZ37G80T+yvlikyvxYsXwYj7kgmODLf444icPMV+0Y2eyfo7fepydeMIJ/koQZELHELJl+BvDSOYlIRk+IwQgiuuuvcbnrLDgkCtkxr6snSLjIRE/83cf/vCH7JOf+ITPYUZ+XcZZOY4+5hgnHToY6oO8kj5fuUDm3IO4uE/eKRuLDFiIToxy5AdQJ5SDOT7yc/vtt7tc+cgB8V500YUue+KFRLFyIUg6uJhDO/nk9AK6zx0qP8gjXMgnjuFIk86HNHAVBuOIILRyAxhEaGNjozYqS4UGyDCPuS7Igl6byXEICmVlgpwGv3bNejvt9FOd0CBCGjzxsgL33e9915548gn/JhjmBlsUILFbP3KrfwGDSWYUPL6wENdYEgyb3n7nbdu1M5Fmo1F3QmMCHcXDBYLQyGNYLQsRGgpB2NhdPz0z7ff5ThlffUDx83zlLpQT625yatI3CbdbiWwhctIjX+QBGaG8O3btkOA7PkTjjQXkzPPkIRxEzEcdsYQgB4iBL49gdR199BZ/Y4AVPuIgXMyN8bbG+PiYhnvH2kc+8hH7oMiMPAzKO25UdQt5IifkQP1xfZbqhdVVhrpY1libhJmdF4HMt0W2eyS5jso75e0C0ou2waIE86Dke8+eKScbCPaaa672hQ6G0PhhVTIPyRdItr+bFkomVvF5cfP0XnzhRY+v7HI5ITdkG++ahrVZYW8c1p/gDpSLSKP+T//pP9nXv3FH17JhjoihF40lJw0af/SWEFZHDZGGyl4lltUhtNNOOdXTIAyfsP6DP/gDt2YgJ4Yev/iLv+hhIY0ygnR4HmXBEvzrv/0b79XxQ5lvuelm+3f/7t95g8YqDEAIzPd89atfdUUE7PVCyX/zN3/T8xnAEmJl9z//5//sViDbCrj/L//lv/QtCSh+ToD5OfkgLSbNv/mtO/wcUG4+C/Tbv/3bPo+E/9/+7d+6tcVQGSBP8pyvKAaQJ/INCwQgX1YWIfBf+9VP+z4s6oPfYvjKV77i5Me7kIThHUqs3quuuNKfXQisRH7vzu/7588hhvm59NsAv/lb/8w+9YlPuvWLTCCo3//93/evB6fvy6X888YAxI21hsyQJRYj9UsZAJ0RUw/Ina0oXJMGZPTZz37W5+Seefo5D4ss0hd8h7tD0xw8h8xxnCM/LGnkzAIKo4gKg3HELgqUQcNEsbAkaNzhGJpAaDQuGjekwvuCEBkrXfkHCOnBUWS3gBQPiojlBlnkm2kXAnFDlAxF0kSzeZ5QHnp5FKgM8jUIOSGB2BBLeSgrVglDYRwKUg5fBsM+CITyBuHnc4Vh6ZYBYZFmLtNwWElYRoQJQBxsvuWHWbBeuYclwwILciXv5JX8QN5YQvsCc4GUM7Y/AOSGPLD8IFP8Wb3kR1VIH/KinKRHPhlihoWJJclwlHvEw7MQDXnGGke2IU+O5TqiTJQ7ZBCuLJvcRb1VWBxH5BwaDcy3Smhox+tHazRUWD2xRg1z3Btn7iCZUAga/LnnnOvDx8svu9z3n/Exwmi8zL88/ZSGCc886x9fXL9ug23ZcpSTH0Q1yEqJZwEKhEX2ikhiUgrDcHVCeWAVFSIhD+QlgKWAckEoKCVDHoiTL4KwDYL4iB/HsJltDISlXHz08CyF40ODEEduzYE8X5wTF8/xUcxdIlb2oqG45AtlJl+QL4TO8AzlIz8QMy6XKQ4/7uMgVIbKDG0vvuhiu/qqq+yaq69xf5Sf+KgvCA1rZcP6Df5ZbfZybRVJIbNAnu8AZZsTgbytsvOxSgS7evWExwOBUjeUhc4Homwo/LCG+o16zb+eq1iVD7bd9CzJCMsqJ9YTnRyvS2GlUb7IB3WEtb5j+w5rNefV1lTuCclllWQyjlzS7xTgQjb5NUdkRLykEavBFQbjiBxyomwMYdL8B/Mkg0GjRIFQPhoUc0woL0qcN1pAGgwXmVvBmuIejZEG+MlPftKVJgf3I1/5OUfm95goxxrgGrJA2RneQaqRLlYD4VB2hlX4E46JdMKGJQUYrjEHFSt7KDKkx5COsgUi7jLIB+5zn/ucz2MhN64hIiw3rBqu77zzTidO0iGuKBsujxtrF6LBIV9kiiWLnCDumISHEOgoeHMAa4p4UHAsIV5JwpIirsCg/PMM1iT1jaywKiMeyB/Liniiw8ESjm0cpIl1iB+EDQgXnRz5YL6SYSsEnHcMpEEHEjKhvsIf5PUTfoEoB/6kR72yEZc0yXeFwTgiCY1rGilDmehxFwKNjkYKgYW1gbLhlysPcTIBjDURWxli/ohevNwIQ9HL5wDlIx6GHoB4SB+lz+NhGEI4lI1zQDiUjU2qef4gPPIXSkm+UGKUkGcC+TM5In9YhMQTcsNawFIhTcIwJwkJRTo58vKGA5QPmSJbLGLiDGUnHYZcECTxAsKTd5Sb8zzPg/JPuuQHWeFieMyzyJN4II1IkykGZM98G2mSfkw7AMIRnnySX8pPPMg0T5/wsY2HeDgPRFyBQfkOcI86Ip+kSb4rDMYRQWhgUDFpKLn/QsqwEBZqhEsRaTntHHm85TCL3QtEmKXkYyEsVLbFkKc36Pny/UH5Kz+3rzDl+/tKFyz0/GLx7guD0gX7G0+gHN9C+azQj57NewRiKY2t3Hi4Dj+eHxRHhCk/m+NAGvpi8f2kEDLA7avc+7p/sBH5yvF+pQ3KaS+E91MmhzuOaEKrUKHC4YUjcg5tX8h7y/zZhfwXQrnXHfRMhFkonTL2le5S0lwIPLtQPgb5LyXuhcpSfnahcIGF8gXeSz6WgsXSHoRB+TmQPOd4L/k/knDEEVreMA6k6IMa1mLxLJRe+C+Ut0D5/oHEEcjDBcpx5sjj2le6i2FQnhZLc1BaC6EcdrF4A0uJf1CYpeZrKXkILBS2jMXSq9BDNeSsUKHCYYMjZpUzx7560MVEspSecl/x58jDHsj9A0E5zvcjjcWQhy1jf5/Nwy+Uh6XkbVCYpTxXxr6eye/nWGr8FfpxxBPa/jToA8HBiudwx3uR00qXcdVGDh6qIWeF/QYKGC7HQv77wv6Gr1BhIRyRFlqF94a8yYRFUW5G+7I0ltrsKoulwv6gstAq7DcgmXCDcCAktFh8FSosFRWhVegCqynce8HBiqeM9xLve3m2wspBNeQ8QpBX80KW0FLC5Fgo/MGKp4z9jTfHe3m2wspBZaFVqFDhsEFloR0hOBQWSrnpHGi8CzVB4huU70NRlgqHBypCq7AgltI0IsxPklgqoqsQqAitwoKIplFuIoOaDASyv00pSOe9kk9FaBUCFaEdoYhqz484Pk/Od/zjPBzXkARfkMWV/XmG6/jqK3450UR8EZ5wEYbz+Bw353Ev94/rcPsC4SsceagI7TBGXrVxzjEnozjHQUrhAhEmAJkFeXHkPuQRfkE2OaGU0wSEizBBUmVCw4V/nPP56SC5CJuHiTjjWOHIQkVohzGo2nBBJhz5vn5YWnwrP0gqHGFy4siJYlBzITykEueBCBt5CBdhyucgfz7yEn5BaHzPn+/34/jGPg6/yHOe3wpHFipCW2HIq2sQyXAeDqKCvCAtyCFIrIz8GciDI3HDUQsRQwrT/9N3EUd+XnYR/74cCDLL/VK+ehZckC5+kBo/tsIPigTpcR3h4/l9IdICSwlfYfmgIrQVhkHVlSt9WF/4BYkFoYVDSVHynBjA3nHvbW31o38uK/KQu8gbyPPZ6aRFhBSmmfknF+F7z/TyGI57Aa6Hh+tOYvx8YJAZ1luccwzyCyxc9oSK0FYWKkJbYShXF9e59cXPpfEzbRAbQ7CcuAJ5HIsr7NIIjXu5y0lskH8678UZhJbO+wmw90yPAHOXx5nnF1BuZMBP3vFTc/xGKtYbxBaoCO3wQkVoKwyhvCgyRIb1BYFxDL9QchAKWVbMXrW3l6S0/c2k1r3miMvTHHSeh+v5p3RzC638bITvt+j64wyXwsV1WtigbDH8jF8kj1/DD3LbV/mXIp8KywMVoa0A5MqKMkNaWGAxP8YxiCwfRubPDQ31lD4UtHy9N3pDswgLOC+7IBmwEOHsHSYIjfPeVpFemHQPRBx5mKW6ALKBwPhBYyy29evXOrlxnQ9Fc9mBheVTYbmhIrQVgKgiyIthJeTFr6VjmaHczBOhjNwDZcICOaEF9q2oexNaTiY5+YRf7p+fg73DJ+JI/onQcidvP4KF4sz9cv9BYcIByg6h8QvzJ510UnchAX9chAP7llOF5YKK0JYpolo4QmC42dlZm5mZsampqa6SobhhlaVneooMBilnXC+mqClMGlrujwsiwYFBJNNzQwP8+t1C9/EfHGfvXtk/7nEEaRg66nNsENtRRx3lQ9HywkGFlYOK0JYJ8moI0sHF8BIyCwepoYwoHkhh0+plXAcWIzSQk1run89Z5S4RQpDp3quTESZQJpz+65RGOcy+3EJxDkpvMQcoP+S1ZctmO+aYY+zYY4/1YSironG/wspBRWjLBHk1BOmgnJAZFtmePXv8HEBm3Askpesp9WKIuAO5wuIf94g+rvcmjB6hRT7yMPEcwD8PE+cpTK+ceZh4Plzun5/nLvfLw5T9wSD/RqPm1tmJJ55oW7dutU2bNnUt3worBxWhLROUqwHLjDkzLDLIbMeOHW41xFaMpIy9V5RyoiorYTnu2BCLfz63lltlg0ij5/YmosFzYHuTTC98Hq58vVjayUWYPK7cb0lxyAWQ2chow0nttFNOteOOO84ttWr4ubJQEdoyRE5mk5OT7rDSWI1j4jqqrExoiyE9M3gVj/NwixFB716P0CIPebjevbiO8L39Zr17+O/9fPJPcXCMZ/rj7Y+rfK/r78cgaw3N4xl/OoFr5IJ8Tzxpq510wol2/PHHuzVcEdrKQUVoyxBBZqxibt++3YeaYZ3lxLU/hJbQv38sjuEghJw8Ikz4RxjIIfz1t3s+KJ4In+4lK67nH+F7+YnnAMSehxvkAGHiOfzyOPyehw0SbzuhAa4iDhAyXL9hrZ1w/Fa74IILfAU55iorLH9UXc8yQihpWGixosl5bCkILIXMIr6ktL0VyyAA0sE12zp2dC0n+vAjfrj5Vu/F9XguzZ0l588XW0ly1wvb7yL8QvfiGHGWw4TjXjmu8PNzuSbXxb0kr4L0CldGyIeOBKs4Tz/JsMJyR0VoywxBOCgqllm8xoSVEMS1mHKFUvbCUMW1rlKGguL6CCCOTRGanLis61otnsPawfWeHXSeu3KYPJ5BcfaH7T07KN/l6wjjBJaF78khgevcBfJOoTmXLOQgy3IcFZYvKkJbZkB5UFCssiA0lKusVCjgQpZZjlDcUPxQ9HBxD8f9CJOfL+SWEn6Qf56f3IVfHmYxF2UbFBa//UXeYZCPILQKKwcVoS0jhGKGMkFoEBuO60FKuhCppbj2tn4i/j4CafZch4n7svO5L8InBc+fL7u4t9B93GL3luqwxMJ1h5aLkBjyGCS/MlgAYHiPy9MrI+JbSpwV3j9UhLYMgZK40kpRg9iYT+Ma7E1izI8x6Z0c+pdcofwZgZTJhOve8K/n33+/38l7L0cc4XK/dL54nLl/+TwP00demdtfYsmtW46x34xhPUQWnxqKeqhIa+WgIrRljFAoLDT2onEEoYBlELaPAIrz3JX9uV7I5eEh1nL4iCN3+f08zGLnuRsUJnfhH+EPBtkgzyAz3unkixxhoVVktrJQEdoyBsqUkxornrikaBAa1Zcm/HOFH+T2vt+zrvL7uEHkFfkou3iG8wiT+5WvFwqb+w9KK7fKyohncAsht8oU0Go6h7SwxNgOA4mtXTNh69el154ibN9zGcJ/0L0KPzlUhLYCEMrK4gBDz/IKXK7McR7Kjwuy6Ll8GEg84eLevlw823PlNA+FizIuhih/2YGwxCAwH1qKzMbHxmxCVtma1av9zQAstNjvV5HVykNFaCsIKCZExh6pIDX8UDyUFRfhggT2JrN+cuC8HCZ/vuxyayrcYuFx3I8wcVwsX3l8cf1egYwgMSwx3riIH1bhuHnzZv+aLf4hwworE1XtrSCExYCCQ2axAoriB7BAwgrhGAoaBJEIid8YYOV0rksaOXlE2NzlRJaHWSj8Ym4QmUU8TPrnq5ZQ2VLojOcDyKmhso9p6IjltX7dOnerRGb4QWIbNmywo48+2r+ysWrVmOTVPy+Zx1dh5aAitGWKxRQqlD9IpqzMtRovsPd+hq5McLklV46rTDa5X35vofOBjs25xWbdgWGVBwhsodVLL1/moB0c82B1lWUES0tEFcPH1bK0sLbCrS6Gk3z3bN26Nf5hx3D4V+9rHj6o3uVcRkCJUfj4usa2bdvstddecz8+PojSDSIohk6cA6pT0SQS4L3FzKoLogjLLib/+0nGg/t5NA2O8Xz5Os7Dgb382+k9Sve3tPUk7uGX3rXsNcNB5z3bKc2FUS7KHBP74UIugGcpG9fcSyuYo/4MyMsf5xzZzIwVd8oppzgZxvA0t+AqLE9UhLaMgHKjVPtDaPk5ChdkEkdQruLcP8KSRhxzV/bjWv+LY4+48vPyNSjfD38/Kt/JskxEFedRPi+jH3u/w4mL8CCe49NI+Ot/cUy//ISDlDjiR37y91TdzadfzmLhhZVOCA0LDkLjuUirwvJFRWjLCCgZigWh8ZsB77zzTpfQmLjOlTlILD9H4ajOII/8mGYX0nWEDQII/zx8uFD2OM+P+TNlJ28/RtzpPCFdQw7JggziwaXrRDpRvnB8uy0Phyvng3Liz5wYzyCbXD44QPhBhMYRC60itJWJitCWEVAyFOq9EBpx4CK+nuM6bc3IFbteHxZBJGumHBd+gQjP84mQ+l2A+yC9tZAILRBxpHghnkRQeX4AJBtxRv6RAYsYDJWdfOQIE+lFfmPukCTSdZBkKgv3AM9VhHb4oSK0ZYRQ3ENNaFR5z+VEkppCjxySI+78Onf5PZ6LZwcpfzS1/nylMuM4Z8iXXpnqWYLh4ntq4SI9XJQ/rDv9L449QsvzRXwVoR1+qAhtGSGU+GAOOXuuR2i5C/KI9AmzN1mkCXEIgXmsIAfSzI8RJs4HIfJFmeKYOwiN7KS8JBeI+Dnmw89IP90LYutZnYPyRbwVoR1+qAhtGSEU/P0mNMJGePanlcPofxZvz0pK1+kcxDH3J09lFxjkz7E3bEwkFESU+x0IocURkMeK0A4/pNqtcMRibyWlSfRcEESg/2seva9szM+33M3N8XWQps3MzrubnuFLIfwMH993S/dwzWYi02QhpnjT8Dc1SdKMdIMoc6TFjMhnhQoJVWs4AhDW0v4iSCUnF7CQf6QT+8qSdZcclk9Ybjn2FW9+/0BwIOWusHJREdphjpWu0AsRYEVUFQahIrTDHPu2cDTeW9DtH6CY90ozB4Oo8jK/VwuvwspCRWhHAFDq96LYB5sUIK3cBZZCZksJE6jI7MhDRWgV9on9IZGlYiGSXch/IQwKOyi/h6IMFZYfKkJbgViKwu+twPs/hOSZ9HuW7w3kZCl0EuVKaZaHvXEdfuk88teTSS9MLgPuL0VuAZ6tSHDloSK0FYL9UcYDB80h3P6DHB6sXB4sMlksHn8xoq0/csVLEo6KyFYuKkJbgagUbm8sJJO8I8jDxHl+v9xpvD+dSIWDiYrQljlQPN/VPj/v50tVsnI4ng3HvcNRWSkbWKhsg/zjmQBheP0q5F1hZaEitGUOlIrfEHjllVds165drmhLIaPFlJF7h5OyHkhZQoYcccSBbHnl7N133/UjHUmFlYWK0JY52GH/1ltv2Z133mkvvPCCv+e5EKHtS7FDeQ9HUPYoWy6Hhc5zxHO7d++2p59+2p566il79dVXK0JbgagIbZmDl6t5UZpPQaNod911l91///325ptvGr+oHi9dBwYp7ULKfjhhIaJeyB9wD6uMDuOBBx6wu+++2x555BEnMn4FKl5kr7ByUNXYMgdKxQ99nHDCCf5p6Oeee84eeughe/zxx+355593YosfH0ZBF1PgHEsNt1KQl6dctrjmiENWfFEDIkOejz32mBMZ8mT+jB9TqQhtZaKqsRWAdevW2fnnn2+nnnqqf8rmmWeese9+97t22223ucXGJ4awNPhmfq6EZWssvz7cLLV9lQciQzZYvAzj6Qjuuecel+Edd9zhZIYlfOWVV9rJJ5/snUiZGCssf1TfQ1tGwHJA2Rb6Hho/mvLyyy/bk08+6RPXWBMQ3JYtW/w3Jo855hg/x7rAysjjxHFOdXMsu+Sf/8xc+tBjupesmjyOxeLJf44OhGXED50E4cY3zIJo+s/z+73vm4Uf30tb+HtoKS38wpFvrFjkh1UGmeG4xp/wW7dudSLjG2jEwxCfDqT6HtrKQkVoywgQAMo3iNDiV5/wf/HFF33SGqXcvn17l9gIc9xxxzmxbdq0yX8lHKsDyy2UHqUMMuqR18oltPDjGCCfOKxWHKvEyOmNN95weSJX/JDP+vXrXW6QF7KDyOIDjxWhrTxUhLaMAAGgiAsRGgqF4qJcWGhs5WAuDUuDZ1gkICxhUFbm3Y4//ng79thj3WpDWfl9SkC1Q4SEDyKCf+J6JRFaONKGwLC63n77bScwZATxs+WF/CA7yAr5hFV2xhlnuB9AJvkXa7F0K0JbOagIbRkBhYM0FrPQUFwsrlA8wsUwCgXevXunTc/O6H7bFREHiUFmayZW+3zc2vXr/BqlHhsZ7Sor5OGEpPRanfS5bs55Nci/LhskpTCE47zs/PnsGqS4E6HFeZAT54mk9ia0obrOhxrWqQ3ZcF3P19LzgHSQAQslyAGLC1lAXDj8cJA84Xgut8iwYjdu3uTX/AAx99vNZNVVhLZyURHaMgIEsBRCQ7niiONHiQn7+uuva2i1zbbv3CGl3uNKjnLOzDBPVHfygshWr9/girpuYpWNy6GwkORII/0Qryu3SIRjPWsdbVlq3lyKJhMEFuQV106IxTVx4DzvfaTVI7HcgRRG8Zvi1jVx1kSqETcENTvPZ71nXVaTu/d0ZcYRksOKGxlp+OQ+Zaa8kBdD8SC0kbFRzwPxEC+ExjEntGrIubJQEdoyAgSAQg0itPxHUlAuFDEIDb9AkNubb75ub297x6+n9kBss67oWCwzc7PWnEu/b1lrpH1uWClrV69xBYYEILpVY7LgCrLzNBVWFOfEBKLp5GQW500IQscgLfJYK0gryCyAHy4Iy59vznXzOqV8z06KuCSX3XumXD57piadiAhbH6q5FUpecVhiq1bJIl0z4UQGiSE/iIxyUh5Po50IDAdJ8iMp+FeEtnJREdoyAsqEcg0itNxCC1KLo5NNQRIo+dRMGm654sthweyGEGSxMb80IzKA3CCLOf+xEhGb0ueLEzLCHBGf6KibVi/d/kWGOOYKH+QWfoThtwaANzm5CMPwljxwPgexcK5jp9V00iFcNNOhjnIa1qPy4EQmy7NHZCJiuYmJNbLMVnWH1vhxJP88Sxr5rz5BaGGhISMIrVoUWHmoCG0Z4UAILT9H4ZwkNFTj6EMzCE4KOjU5Y1PTDMembHZaZMbc0yxu3uaw3GaSBcdQLuadQtm7pCRyizxwBNwLQgvEuTctkU8ZlBM4gSpMq9Oz7lo6cq6GqXhia4ZI24lrxEaH5cbHnHAgKCey0WSZ4YdL5Daho8LqOvIbeY20FvoZu4rQVi4qQltGWIzQGDIFcaGU+TlWCueA6oQgiIuPHyZlFUm0WMGcl8WjoeY8Q7q2zYq4fGvD3IzNz6YVUp7tPV+QjPwhOIapHGM7RLic/HDRpCCAmIsD5HW4yPNwveFDv64bHfEjZQk/wlGuKBsE6AsFlL8mIh9JQ2Hm/ggfYXGQoIJ52HDkI+Iin/v6XU5WQKtFgZWFitCWEQYRGvvN8GPDbK7gQWj5OQoXJOTO0jBO/7t+aRiXwgQR+VALZc7IzMO209BMFOnXrHbmZBXnQRbhcgLJLTTCh4u4uq4Ipqe6cUBe3Tm7WraRlmj9nHJDZMUcXXEfxyKIDiW/njVJuYLQ+uSgY0VoKxcVoS0jQBooVJnQ8F/KkJP7HodIiWrlvOw6rX7SCj/Ch3+rmZ7txP2hdB8LKcghXOQBYtFl95p7/kxGAt30SEvlTD9QnBYnPF0/NovQQuxBU8KQG/E2asPyg9wg1R6JcS8IC7cYoQHSikWBhQitWhRYeagIbRkhlLo85MQfQguFRLmWRGhsIdN1u9hThoO8II0Urp9kCE/6OHkkP78nP8hOCh9+8Uzvmrjyzbj9lpfnvZiD4zwRUI/8gizk1S0j1hn+Q7LOvKxDEFMsgBRx+vnerkxoeVhAGcurnBWhrXyk2q2wrAExBFzB5XK/QWDavS3Lyty6aqX5p/wRnp+atKHpKRuanbP2/JwssmQdJcX1GNw5KXVkcam55OmmNwgUQo59Z+JKa4olcQzncM15+cvi4xhhu88pLn/OCZe03dPT8tXMIv9t0tXw1wlScQYh51iIbMK/fH9f1xVWJioLbRkBJcVC2NcqJ9ZCfh4WGkqZrCkRC8Rh8zCNnpdHMW/WtZ62b7eh555O92X5tEaGrT08Yu36iLXEJe2GrL1a3WRzyY8tFzrneV1DNsSRD10hM9KO664TT5Av5c6Hi4rSr7HEOIq6fEjZEMnJENMVvWzHhpWnuohrSFZUrZWer4v4arKi2uvXWWfdGqutWp2GooQtyh9WWFhouX8cQ9ZYaFhmlYV2+KAitGUElGwhQss31uKCxPJzFE4xFMoqxW7PpzhVw6xwct5p1xWiZcOPPmrr/+pvrCPlZSWytWbCWqvX29ya1Ta3epW1166x5uoJm5+YsLYUutkYszmFazaGZbEVK4VLIDReW+oRDaSQ5tU4NkRcDT3XULiGGLgzM2+N1qwNz87YqCzGkV07bViyqO+ZtYaua7NTVmcv3WWX2Nz551vz+K1WU37SULTf7c8cmp9DbNXG2hWPitCWEVCmg0NoKa6wymJzqhOMmAera/TBB239f/8fNvTudjFRy2z1allTDbfK2oqvNVK3zqjIa1hkJoVuyXprjozqmvsiNBFJqy6CE0EwJGwpfb8WkbQ5yqLC4qm3REQ61rC0nLyYqGvayLzITOXqiHSHdWzMztvQnCwwEVcdP5l2MujksEBXmc3PWG1uVgQ8Y7uuuNimL7zY5k4+pUtoUX5cOt9/QitbaNUq58pDRWjLCIsR2r5WOeNeWE3JWurFCY+w/cIXBRjSPfiwrf2TP7HhqckU18ZN1pqbt44IZUhhOjq32VmrTU6LyEReoyMiM9lUxVB0SNbWvLihLTLpKG2Irql45usiw2ExkfzbShcSGpqf1XBRpAVJyRKD4Bqyhurzshq5JzKp6Zx7voK5atzz01kzZkMTq6y+ao21d+yyzuQexTVv2y6/1HZffLE1Tz3DhkRoDRFoEFaQVuxDQyb9/onQnOiVrhNZISO30nSsCG3loiK0ZYT3Qmgcuc/QzwnNGGKm8zmxGeeQ2ZCIhSoffvgRW/vnn7HRDett5MQTrHHGqdaRldSW67TnrLNj0jovvWKtBx+yzqoRs5Gk0L54gCUlh7WEVdVhVRWiwDrzSbC0wslc2xCT/HXdG5XlVBtxImQY6uEUl+2ZFJkRVkRbl0W3dr3VTjvdatdf52WwGVllU9M29PQL1n71dV1P2/Ybb7BdV15hrdNOdUuRfWiUPUgrHfsJLb8fsh5EaJzzihiEdtppp/mrUxWhrRxUhLaMEIo1iNBiYy0uJ7Gc2LjXs9B6iwBM5vvCANYZK4pKa+TJJ2zD3/+9rTr1dKuPa0j56mtmu/ZYe04WGhP2a9aIhMbTyicko2FmZ3KXW2+sQpqssPYLL1jrxRet/dbbNnT8cVbbcpTVN2y01hNPJj92759yig0ds8UtLQcvxm9/14Y2brT21Ix17r/falMitnmRrohp5LprbOjsM6wzPuppQXxtWX2d+0SsTz9nQ7t22PYPf8h2KVzzNMWNhSaLMWQD6QShBdH1+/cTWhAZx3C8+gSJVXNoKw+pdissW0BMKBxKhrINQiha6pugq3AJVDIT8MywpRVKhUe5h6XoE+MepvXiS9Z67AlryyJrP/KotV96yS212rnnWP2C8612uqyh9ets6CgR6wlbrX7WWTZ06klWO/ZYxTFhtZNPtMaF57urbz3ehjZvsqHjjrHaKVt1T+E0hKyt22A2PiEyHLHaSQp/2slmYyJNWWz+RoGGqUNKp37mab6VpCNLySZlBbZkBcrKZDgM4ULKbgV6zqPcvWNgIf+FQDiIjvdfGXYu9bkKywcVoS1zQGb8XiRfXkXJIC8ULZQtrLFB6Ke1HvE5GCpu32GtN9+wFnvRjj9GVtNaGxpNn9bpvP22dbZtd8LBquls32nzDz5srSefss7Lr+j+mxrPNcyOElEde7yNnHK6NbZutY6Glx3FVb/gHGtceqHZqglrPveczX3+izb7uS/Y/De+ZZ2HHvchrcwrt6QUkfkutFGdr11ntmaj4lE+IJU3Ncx89lmzHcoL+9KEZHXJYvKrhIVkEP4L3QfIJWRDp4FlzEczF3umwvJERWjLHCgvQ1B+au3BBx/0X3zCgkDZckUM+IZUr9Ze1UIDGGWA8Oz34nnfW/bM89Z+5lmrjchSO+NUG7rqMqtfdYXVrrzKh4u2c4dvwLWZKR1FfEdtts5JJ1lnw3qfpBf7Wf2Ky6yzetyaWFSsbMp6q192mYaax8h/leIe1vB11GxitchqjQ2tX2N1DeNqIq/aaada4/xzbOSi86x+/tnWUnrNF0Rgq0bTfNr6jVYbX+X7zWoMmwXfH8e8HHN0BeeU5RAI/0H38Qt/Og1+yJkfdOaHaPjiSEVoKw8VoS1zMDeGYjHk5Dck+Q0BFI9v5uMXStdT2KTo7Kwf8pn3AcDSGRmx5oaN1pxt2jzWF28LyBobWr/B57cYIno8z7xg7RdelKX0ttkepeeLALIQmVvbIwJjzm3zBmuJEFhEaL/9rs9r2RqRl44sAtgqxYsFuFVD0GOPVtzrMT01hGw6QdZ0r8bwdNNGs1detvZDD1lLVlJHlqNvpdBQtDm6ymbXr7W5LVusuXatdZT/RNK9JpyTV05WgfL9mC9DlsiUX9N64oknuosCFVYeqkWBZQSGeihZviiQPqu93b9Vdu+997ry8UXZs88+284880z/gQ+u+XxODD91MF4p8pfLjf1W8uCaSXYd5zttq2lINfLQIzbywnNWf3ubdURWI7PT1lA6DVYxmTxvzst/RsPKDT5fVXvjTWuPyLLarGHmaSdba7tIR/HVRIztVzQ0nNLz61f7PFtn3VonTdL0JiazcGi+5dZee9s2GxqR1TWs+4p3qDnn/k2Ve2j7LjPlozUmwl21ytoTq6y1eo3Nj09YG6fzGQ1n504+0YYm1vjQk6zGoggOsgr/dJ78e/cSCfJDM1hj/MgwhIaVxiIAv4GKQ8b8BkO1KLByUBHaMsIgQmOVkyEmpIUFwQ/i8gUO9kfxS05s5+DXi/gJNtzwcNqmwPfO2DjqcVLFGaH5Suj0pNW2bbehXTs13ppMWzBmcdM+IQ/5pIn5XYks5uatLmJlNdK3YaxebTWGoPNz6XWm7bvTvjU+0z0yKjciC61ebNRVAMhNz8kuk9XVlJ8soNExm5Ml5PxSk8XED6Ior4Rrjcq601CzzUqrhp8djgo7ND7urz4NyQJk75t/PqjYWJsTVv7qUzj8kW38vimdBXNldBKky28OnKXhMpuY+aUstm1U+9BWFipCW0ZYiNDwY9sGivjSSy/5fBpWG0SHksXPsaGA69at6X43v85qopSYKiYO4l/IdURUnda8tWQt+abaGVlNM7NyIj4da1MzVp/UkFOEx/6xzrSITMe6SK/WlBUnqw6yq7U46vmiWfFOaEfk1Sk252J5tUR4JkvPrxnaQX4ijY7IqiMSY2NtW+FMzw2JiIacuESKsrqcnIY6TmJ81igntCCz5JKFRtlZWGFODHlBXpAZc5HIF8uXL99CYMgQqwwgw2rbxspDRWjLCBDLQoSG1YBCsdLJUIlhEuRGOJ5DoVHMY4472k488UQ77ZRTdX68K6TslfR1WZHNQsRGM2hriNn1K76J5lskGDbypkFTw1ddQ3y8eZD8NSzVkXjx9E25zLMVQ80ORCByGcKMEzF16r1NwEMQj7whKl+1hJBkzdUaIuKGyENWm4eTvz/jq6Iir1rxa1KKy69FaInEkoPMG4qDtyWYI2OFmCEl1i0yRb7kDZLCKoO4GLrzS1D4QXLVPrSViYrQlhEgkMUIDaWmurjGWsPa4Lc4GToRHiuET1mvWjVm69astTXr1vuQiXPmglavTb/o5NYbFg4kxhCwS2JpY6n7F34MT9M7oUX+2JjLPQiuCINLw1ndg/AUD35NPeskJSJKZJU+q91zaoD4F2SWzpO1hYPw+BYa/vmwsvtmgAjNnytacOwfYy4MefD7nHGMH4ihfJQfosIqY5iO9YucWAgg38TBp8AhtGrIubJQEdoyAsq0GKGhxCgWDuVG8SC1+HVwhqEoL4qLlYECooyQGXNt/Jzbhg0bfDiF8jqxOXkkosGiCThJdXp73iJvHNO9jAgHOF+UKJpW/HxdEBLnHBc7p4zh53EU5IeLPJEfhpPzGupC5pOTicggexw/4QeRkS5y4DUmZIEMkAW/LI9cuEdc8fXcitBWLipCW0ZwIpBCLWah4ULZQ/G5T3gWC3BMdOfEhrITBvA8hIaFgmKzsLB+/Ua/Hh8fdUUmTAKz9WkeirxBHjlpLeaC0JykCiIg3iCpyH/uuB/39iaQFC95gKTCCoO4tm/f6edzc/xiPFt0eTNr2EmbYThWKUQGiTHfyNCSoSaI/PJclC8IrfrVp5WHitCWEZwIFiC08svpOJQMxcUfZYTAIDIcCo+FQjycQwIMybBCukRTEEc44hoeTpZb/PpSfh/HMzieD0d80YzinLJEOiDSi+sc+TMhgyCY+flZP0LKPg8oF/cinB5xKHrPMwQEiUFGOMgMSyuuY9GkHA9HHIQGGVZzaCsPFaEtI+wPoeUEk58TB8qfkxuOOCE1lDV3YcElYmDOq0eUES9bQbjG5YRKejiAsofCB0GVkRNCEFgcKWMcyUsQV5nACEPa5AXSgWz4DU4sMSxMyAoyY3gZjusYZpMH0ox0cMQZ8eMqQlu5qAhtGSEUeqlzaOGCaCKO3IXiQlyQHC6IDIsNMus/ph8nDr/kZrrWEfFFk4ljTmY5wq/cxLgu+1E2wicCTRZiOAglHEQT/r3zsSLcSEFs434dcgnijTQA5QiXkxmuIrSVi4rQlhH2RWhBYChXkFsQWigrcVClHPM4UdogpbB68uueX1JqrjnyfPdXonQdzYW0OM+bTyh8+Qg4z68DuX+c5wSEizKXHeVO5yN+ZPUz9w8yi3gjbkBZwlWEdvigIrRlhCCNfRFa7pJCJ+VF4ajOREKJ2HA8n/vFeShw7uTdfQ4kIuhvIkEOEa4/bD+Z5cfF7gfy+PIyAIbDhM+JDhfnkc+4X3bxLCDuMpHFdUVoKxcVoS0jBMnsD6HhcmuE6gzCys8j7rI/flzj0v1kvYRfCpsstHDhPwj452QV5/sKX3aUhTL1+yXyzsNEuHTeSzO/V/YDlKMitMMPqXYrrDiEkuYuR/l6IeTh4jz3S0REM4EsscoY1kIIEB+vFbV9mJrm3ubdTU/P2tTUjIh5qusmJ1mEmLWZmTl3hOMZniee3PkHKLP0Iv1BeV0qCD/oGcoXLkf5usLKQEVoKxgLKehCWEipgzASmHsLlxDPlZ8NIghLrykLB8f82+yciGt21qazxYeYp8MRvmzt5XkvpxXXeZiloBy+HO8g7G8aFZYPKkJbwQjFW4qSLgeQ34XIolyWPFz+3P4S21Jkk4cpp1thZaEitBWAfSnWQvcZreVuYfRbZD0kf+IPB/ZFEuXccI3Ln+N84evIT56nsl9+nfvvG+V0c/lFPvIwFVYOKkJb4ViIzPaCf5p7XyBMuMVxoEr/Xoli3+Xtz38efimyKudvyfKtsCyw75Zb4SeOMnlwjqLhcv9K+fbGvghqMRmGfyXXlYOK0JY5BilVKGFZEfPrCgtjEGmVZcd1hKvkunJQEdoyBooU+6ZYKWRVEJTJLb+u0I+FZLOYzGJfG6jIbGWhIrRliCAyFIsNnWxx4DM5bH3gXq5kcY2riG1v5LLKEf65zPBD7vEu6ULPVli+qAhtmSGUCjJDsXAoXXwtI0gNVAS2OEJOixFTfg8LmLcEAHKnHri/2PMVlhcqQltGCOUJyywsBa7ZjAqp8W0zNqgOGn5W6EfIZikywgqOr4tAZCH3ILUKKwMVoS0zoDwoEYSGUsUXVznywcb4nU5IrVK2fSMns+gwcplxHzILC5hOhHc3cUFqlYxXDipCW2ZAeWK4yQvSfJiQjxTGt+0hMn4YhZfW+T2BfLGgUryEheRQttSQHR+/ZH6SoSYdBPKm80D2lYW28lAR2jICioMLCy0IjS8+8BlpHFYDw874xSe+yMGXOfhwI8PSpQyvjiSETAGyYUgJeSFDyAzZcc49Ogw6D2SeW2d5HBWWN6rPBy1DYHExDMKCQPnic0I4hp0MOfniLNYa1Qfh8QMg/Cwbw9NYSPBfSFdc7vxn5/o/A5Q7wuvQfWmcTwYlP+6lD0fGPfzjXtl5utk1CEJoFBYPyK0fjv3n+f1EKrlf+tm7TnGefz5o7/A4rnHkJ5ch18gKmWEBx28PxBCfDiXirbAyUBHaMkSQBRZXWBSQWiwKoJCcY5VBbChrPveDMmJlrFo90VVK4ku/nTnYpTR7ZLovQuNYPo9fevLzImyQCe5QERqud68XD+nHYgoyRJZc47iHbILM6BTi9wdi/iy+gYarsDJQEdoyBFUSLkgN4kIpmbgOcotz/HFYdCgfihpD1LDYQtFz5USpIx3Ok+tZaeEP8DtQQiv/LicI8smdh9WxTE57+6fnw59jDvKAQ3bIDasMOWHRIptYaIkfUYHMYu4MB5FVZLYyURHaMkRUSSgm5IAyQlgxDMVhoUFq8eMnOMiPsGGFoJAoZygvioz1ESQX6QQp6f9exBXHQ01ogDDh/NnCn2P448U19yM9yhuyQSackwfCU37KC5m55Vo4ZBEkxj0csom4QRwrrAxUhLZMkVdLEAZKC1lBWihsWG25ww8X5Ed4ng2rIxFCjxzCP78XSpy+GNuz4HJCC7+yw788hwahEW84kKfFOUccfpG38EvoT5e84Cgfxzw/nEe8QVQxFMfFOccgMQgvZNCfboWVhIrQlgnyaigrU9wrKzKEFeQWBJcTWn5O+HCh9JAHSoxCl5UalPMRz+ngx3Qefj0y4RjWGiAW4gwCA/k1x969ZNVxP54H3XhVdog9HOXhHs+Qf8oRBBYuv477QWQ5mRNHuAorExWhLRPk1VBWqPwe5ziUOxSaYxAb1znJhQs/jvFMkENYOHEEuXKj8DnpMFEfiPCRpzi2C39AaXjWz4s4e3El14snWYFBXuEP4pkgIFwQUpByEFWQVlyHC9LL44g8BPLzCisLFaEtE+TVsJhC9RS/II5C8XFBVByD2PLzcOEXRBikFn7ESfzhBiG/Vw6bn4MgwJw4gpzy83SdLLQA59zPCQxSKrsyYZXv43ISI848D3maFVYuKkJb5ihXT654cY9jTm5lghpEdvk1x/xeHgcujzvSyo/hIi9l5KSRu/DLCSYnL1yQEMdwg8gKl9/nmD+PCwIr56HC4YOK0JY5ytWTK+GgqsMviCYnpXBBXpwTLie0uJ8fwxEWx3meRvl8MQSJBLHkx9yViSiuw+X3c788LMeIK9ItY5BfhZWNitCWOcrVsy8ljPAccUFE+XlOUoPOcxfPlF0eP4jjYghiKbsyoQURBSnhyiQ16DxcxBnxR9qDQBkCeZiF/Cssb1SEdpgjr17Og4zy475cOVzEmZ/HcW/0E12QQxAO4NhPSImkyv7p3sJ+EVd+3BfyfOfPLORfYXmjIrTDHItVL/fCgUFkFcc4B3Gdu4Ux2HILIgoXfumYrLHw5xjh4zo/B+QhzkF+vhjyvOfPLORfYXmjIrQjHHn1l8/DxXUcy36LgW0YgTIxcB1+/cdkeQXKYUB+nucj918K3suzFZYfKkKrsF8IK22piOY1iCwWIqgKFQ4UFaFV2C8cquZSEVqFg4GK0CpUqHDYoDdRUaFChQorHBWhVahQ4bBBRWgVKlQ4bFARWoUKFQ4bVIRWoUKFwwYVoVWoUOGwQUVoFSpUOGxQEVqFChUOG1SEVqFChcMGFaFVqFDhsEFFaBUqVDhsUBFahQoVDhtUhFahQoXDBGb/f68yxcpvpXlKAAAAAElFTkSuQmCC;" vertex="1" parent="1">
          <mxGeometry x="790" y="81.32" width="168" height="140.18" as="geometry" />
        </mxCell>
      </root>
    </mxGraphModel>
  </diagram>
</mxfile>
